<svg width="34" height="36" viewBox="0 0 34 36" fill="none" xmlns="http://www.w3.org/2000/svg">
<path d="M10.9228 23.171V8.16855H6.27586V23.171H10.9233H10.9228ZM8.60032 6.12057C10.2205 6.12057 11.2291 4.96856 11.2291 3.52887C11.1988 2.05638 10.2205 0.936523 8.63113 0.936523C7.04069 0.936523 6.00195 2.05638 6.00195 3.52874C6.00195 4.96843 7.01024 6.12044 8.56987 6.12044H8.59995L8.60032 6.12057ZM13.495 23.171H18.1416V14.7939C18.1416 14.3461 18.1719 13.8971 18.2947 13.5773C18.6305 12.6811 19.395 11.7533 20.6791 11.7533C22.3601 11.7533 23.033 13.129 23.033 15.146V23.171H27.6795V14.569C27.6795 9.96113 25.3873 7.81683 22.33 7.81683C19.8235 7.81683 18.7227 9.32017 18.111 10.3441H18.142V8.16907H13.4952C13.5559 9.57648 13.4949 23.1715 13.4949 23.1715L13.495 23.171Z" fill="black"/>
<path d="M0.751953 27.2256H2.45117C3.18815 27.2256 3.74414 27.3324 4.11914 27.5459C4.49414 27.7594 4.68164 28.1279 4.68164 28.6514C4.68164 28.8701 4.64258 29.068 4.56445 29.2451C4.48893 29.4196 4.37826 29.5641 4.23242 29.6787C4.08659 29.7907 3.9069 29.8662 3.69336 29.9053V29.9443C3.91471 29.9834 4.11133 30.0524 4.2832 30.1514C4.45768 30.2503 4.5944 30.3923 4.69336 30.5771C4.79492 30.762 4.8457 31.0016 4.8457 31.2959C4.8457 31.6449 4.76237 31.9417 4.5957 32.1865C4.43164 32.4313 4.19596 32.6175 3.88867 32.7451C3.58398 32.8727 3.22201 32.9365 2.80273 32.9365H0.751953V27.2256ZM1.68945 29.5811H2.58789C3.01237 29.5811 3.30664 29.512 3.4707 29.374C3.63477 29.236 3.7168 29.0342 3.7168 28.7686C3.7168 28.4977 3.61914 28.3024 3.42383 28.1826C3.23112 28.0628 2.92383 28.0029 2.50195 28.0029H1.68945V29.5811ZM1.68945 30.3389V32.1514H2.67773C3.11523 32.1514 3.42253 32.0667 3.59961 31.8975C3.77669 31.7282 3.86523 31.499 3.86523 31.21C3.86523 31.0329 3.82487 30.8792 3.74414 30.749C3.66602 30.6188 3.53711 30.5186 3.35742 30.4482C3.17773 30.3753 2.93555 30.3389 2.63086 30.3389H1.68945ZM9.70117 28.6123V32.9365H8.97852L8.85352 32.3545H8.80273C8.71159 32.5029 8.5957 32.6266 8.45508 32.7256C8.31445 32.8219 8.1582 32.8936 7.98633 32.9404C7.81445 32.9899 7.63346 33.0146 7.44336 33.0146C7.11784 33.0146 6.83919 32.96 6.60742 32.8506C6.37826 32.7386 6.20247 32.5667 6.08008 32.335C5.95768 32.1032 5.89648 31.8037 5.89648 31.4365V28.6123H6.81836V31.2646C6.81836 31.6006 6.88607 31.8519 7.02148 32.0186C7.15951 32.1852 7.37305 32.2686 7.66211 32.2686C7.94076 32.2686 8.16211 32.2113 8.32617 32.0967C8.49023 31.9821 8.60612 31.8128 8.67383 31.5889C8.74414 31.3649 8.7793 31.0902 8.7793 30.7646V28.6123H9.70117ZM13.9238 31.7021C13.9238 31.986 13.8548 32.2256 13.7168 32.4209C13.5788 32.6162 13.377 32.7646 13.1113 32.8662C12.8483 32.9652 12.5254 33.0146 12.1426 33.0146C11.8405 33.0146 11.5801 32.9925 11.3613 32.9482C11.1452 32.9066 10.9408 32.8415 10.748 32.7529V31.96C10.9538 32.0563 11.1842 32.1396 11.4395 32.21C11.6973 32.2803 11.9408 32.3154 12.1699 32.3154C12.472 32.3154 12.6895 32.2686 12.8223 32.1748C12.9551 32.0785 13.0215 31.9508 13.0215 31.792C13.0215 31.6982 12.9941 31.6149 12.9395 31.542C12.8874 31.4665 12.7884 31.3896 12.6426 31.3115C12.4993 31.2308 12.2884 31.1344 12.0098 31.0225C11.7363 30.9131 11.5059 30.8037 11.3184 30.6943C11.1309 30.585 10.9889 30.4535 10.8926 30.2998C10.7962 30.1436 10.748 29.9443 10.748 29.7021C10.748 29.3193 10.8991 29.029 11.2012 28.8311C11.5059 28.6305 11.9082 28.5303 12.4082 28.5303C12.6738 28.5303 12.9238 28.5576 13.1582 28.6123C13.3952 28.6644 13.627 28.7412 13.8535 28.8428L13.5645 29.5342C13.3691 29.4482 13.1725 29.3779 12.9746 29.3232C12.7793 29.266 12.5801 29.2373 12.377 29.2373C12.14 29.2373 11.959 29.2738 11.834 29.3467C11.7116 29.4196 11.6504 29.5238 11.6504 29.6592C11.6504 29.7607 11.6803 29.8467 11.7402 29.917C11.8001 29.9873 11.903 30.0576 12.0488 30.1279C12.1973 30.1982 12.403 30.2855 12.666 30.3896C12.9238 30.4886 13.1465 30.5928 13.334 30.7021C13.5241 30.8089 13.6699 30.9404 13.7715 31.0967C13.873 31.2529 13.9238 31.4548 13.9238 31.7021ZM15.834 28.6123V32.9365H14.916V28.6123H15.834ZM15.3809 26.9561C15.5215 26.9561 15.6426 26.9938 15.7441 27.0693C15.8483 27.1449 15.9004 27.2751 15.9004 27.46C15.9004 27.6423 15.8483 27.7725 15.7441 27.8506C15.6426 27.9261 15.5215 27.9639 15.3809 27.9639C15.235 27.9639 15.1113 27.9261 15.0098 27.8506C14.9108 27.7725 14.8613 27.6423 14.8613 27.46C14.8613 27.2751 14.9108 27.1449 15.0098 27.0693C15.1113 26.9938 15.235 26.9561 15.3809 26.9561ZM19.4043 28.5303C19.8913 28.5303 20.2702 28.6566 20.541 28.9092C20.8145 29.1592 20.9512 29.5615 20.9512 30.1162V32.9365H20.0332V30.2881C20.0332 29.9521 19.9642 29.7008 19.8262 29.5342C19.6882 29.3649 19.4746 29.2803 19.1855 29.2803C18.7663 29.2803 18.4746 29.4092 18.3105 29.667C18.1491 29.9248 18.0684 30.2985 18.0684 30.7881V32.9365H17.1504V28.6123H17.8652L17.9941 29.1982H18.0449C18.1387 29.0472 18.2546 28.9235 18.3926 28.8271C18.5332 28.7282 18.6895 28.654 18.8613 28.6045C19.0358 28.555 19.2168 28.5303 19.4043 28.5303ZM23.959 28.5303C24.3444 28.5303 24.6751 28.6097 24.9512 28.7686C25.2272 28.9274 25.4395 29.1527 25.5879 29.4443C25.7363 29.736 25.8105 30.085 25.8105 30.4912V30.9834H22.9238C22.9342 31.4027 23.0462 31.7256 23.2598 31.9521C23.4759 32.1787 23.778 32.292 24.166 32.292C24.4421 32.292 24.6895 32.266 24.9082 32.2139C25.1296 32.1592 25.3574 32.0798 25.5918 31.9756V32.7217C25.3757 32.8232 25.1556 32.8975 24.9316 32.9443C24.7077 32.9912 24.4395 33.0146 24.127 33.0146C23.7025 33.0146 23.3288 32.9326 23.0059 32.7686C22.6855 32.6019 22.4342 32.3545 22.252 32.0264C22.0723 31.6982 21.9824 31.2907 21.9824 30.8037C21.9824 30.3193 22.0645 29.9079 22.2285 29.5693C22.3926 29.2308 22.623 28.973 22.9199 28.7959C23.2168 28.6188 23.5632 28.5303 23.959 28.5303ZM23.959 29.2217C23.6699 29.2217 23.4355 29.3154 23.2559 29.5029C23.0788 29.6904 22.9746 29.9652 22.9434 30.3271H24.9121C24.9095 30.111 24.873 29.9196 24.8027 29.7529C24.735 29.5863 24.6309 29.4561 24.4902 29.3623C24.3522 29.2686 24.1751 29.2217 23.959 29.2217ZM29.752 31.7021C29.752 31.986 29.6829 32.2256 29.5449 32.4209C29.4069 32.6162 29.2051 32.7646 28.9395 32.8662C28.6764 32.9652 28.3535 33.0146 27.9707 33.0146C27.6686 33.0146 27.4082 32.9925 27.1895 32.9482C26.9733 32.9066 26.7689 32.8415 26.5762 32.7529V31.96C26.7819 32.0563 27.0124 32.1396 27.2676 32.21C27.5254 32.2803 27.7689 32.3154 27.998 32.3154C28.3001 32.3154 28.5176 32.2686 28.6504 32.1748C28.7832 32.0785 28.8496 31.9508 28.8496 31.792C28.8496 31.6982 28.8223 31.6149 28.7676 31.542C28.7155 31.4665 28.6165 31.3896 28.4707 31.3115C28.3275 31.2308 28.1165 31.1344 27.8379 31.0225C27.5645 30.9131 27.334 30.8037 27.1465 30.6943C26.959 30.585 26.8171 30.4535 26.7207 30.2998C26.6243 30.1436 26.5762 29.9443 26.5762 29.7021C26.5762 29.3193 26.7272 29.029 27.0293 28.8311C27.334 28.6305 27.7363 28.5303 28.2363 28.5303C28.502 28.5303 28.752 28.5576 28.9863 28.6123C29.2233 28.6644 29.4551 28.7412 29.6816 28.8428L29.3926 29.5342C29.1973 29.4482 29.0007 29.3779 28.8027 29.3232C28.6074 29.266 28.4082 29.2373 28.2051 29.2373C27.9681 29.2373 27.7871 29.2738 27.6621 29.3467C27.5397 29.4196 27.4785 29.5238 27.4785 29.6592C27.4785 29.7607 27.5085 29.8467 27.5684 29.917C27.6283 29.9873 27.7311 30.0576 27.877 30.1279C28.0254 30.1982 28.2311 30.2855 28.4941 30.3896C28.752 30.4886 28.9746 30.5928 29.1621 30.7021C29.3522 30.8089 29.498 30.9404 29.5996 31.0967C29.7012 31.2529 29.752 31.4548 29.752 31.7021ZM33.6504 31.7021C33.6504 31.986 33.5814 32.2256 33.4434 32.4209C33.3053 32.6162 33.1035 32.7646 32.8379 32.8662C32.5749 32.9652 32.252 33.0146 31.8691 33.0146C31.5671 33.0146 31.3066 32.9925 31.0879 32.9482C30.8717 32.9066 30.6673 32.8415 30.4746 32.7529V31.96C30.6803 32.0563 30.9108 32.1396 31.166 32.21C31.4238 32.2803 31.6673 32.3154 31.8965 32.3154C32.1986 32.3154 32.416 32.2686 32.5488 32.1748C32.6816 32.0785 32.748 31.9508 32.748 31.792C32.748 31.6982 32.7207 31.6149 32.666 31.542C32.6139 31.4665 32.515 31.3896 32.3691 31.3115C32.2259 31.2308 32.015 31.1344 31.7363 31.0225C31.4629 30.9131 31.2324 30.8037 31.0449 30.6943C30.8574 30.585 30.7155 30.4535 30.6191 30.2998C30.5228 30.1436 30.4746 29.9443 30.4746 29.7021C30.4746 29.3193 30.6257 29.029 30.9277 28.8311C31.2324 28.6305 31.6348 28.5303 32.1348 28.5303C32.4004 28.5303 32.6504 28.5576 32.8848 28.6123C33.1217 28.6644 33.3535 28.7412 33.5801 28.8428L33.291 29.5342C33.0957 29.4482 32.8991 29.3779 32.7012 29.3232C32.5059 29.266 32.3066 29.2373 32.1035 29.2373C31.8665 29.2373 31.6855 29.2738 31.5605 29.3467C31.4382 29.4196 31.377 29.5238 31.377 29.6592C31.377 29.7607 31.4069 29.8467 31.4668 29.917C31.5267 29.9873 31.6296 30.0576 31.7754 30.1279C31.9238 30.1982 32.1296 30.2855 32.3926 30.3896C32.6504 30.4886 32.873 30.5928 33.0605 30.7021C33.2507 30.8089 33.3965 30.9404 33.498 31.0967C33.5996 31.2529 33.6504 31.4548 33.6504 31.7021Z" fill="black"/>
</svg>
