<svg width="22" height="22" viewBox="0 0 22 22" fill="none" xmlns="http://www.w3.org/2000/svg">
<path d="M4.92869 21.6809V7.05462H0.28172V21.6809H4.92918H4.92869ZM2.60618 5.05799C4.22633 5.05799 5.23499 3.93486 5.23499 2.53126C5.20466 1.09569 4.22633 0.00390625 2.63699 0.00390625C1.04655 0.00390625 0.0078125 1.09569 0.0078125 2.53114C0.0078125 3.93473 1.0161 5.05786 2.57573 5.05786H2.60581L2.60618 5.05799ZM7.50085 21.6809H12.1475V13.5138C12.1475 13.0773 12.1778 12.6395 12.3005 12.3277C12.6363 11.454 13.4009 10.5495 14.6849 10.5495C16.366 10.5495 17.0389 11.8907 17.0389 13.8571V21.6809H21.6853V13.2946C21.6853 8.80226 19.3932 6.71171 16.3359 6.71171C13.8294 6.71171 12.7285 8.17736 12.1169 9.17562H12.1478V7.05512H7.50109C7.56175 8.42724 7.50073 21.6814 7.50073 21.6814L7.50085 21.6809Z" fill="black"/>
</svg>
