<svg width="30" height="30" viewBox="0 0 30 30" fill="none" xmlns="http://www.w3.org/2000/svg">
<path d="M9.89145 14.7837C9.89145 12.0823 12.0808 9.89184 14.7823 9.89184C17.4838 9.89184 19.6743 12.0823 19.6743 14.7837C19.6743 17.485 17.4838 19.6755 14.7823 19.6755C12.0808 19.6755 9.89145 17.485 9.89145 14.7837ZM7.24692 14.7837C7.24692 18.9453 10.6205 22.3187 14.7823 22.3187C18.9441 22.3187 22.3177 18.9453 22.3177 14.7837C22.3177 10.622 18.9441 7.24859 14.7823 7.24859C10.6205 7.24859 7.24692 10.622 7.24692 14.7837ZM20.855 6.94982C20.8549 7.2981 20.958 7.6386 21.1514 7.92825C21.3448 8.21791 21.6197 8.44372 21.9414 8.57713C22.2632 8.71054 22.6172 8.74555 22.9588 8.67774C23.3005 8.60993 23.6143 8.44235 23.8607 8.19618C24.1071 7.95001 24.2749 7.63631 24.343 7.29476C24.4111 6.9532 24.3763 6.59912 24.2432 6.27731C24.11 5.95549 23.8844 5.68038 23.5949 5.48677C23.3054 5.29316 22.965 5.18975 22.6167 5.18961H22.616C22.1491 5.18983 21.7014 5.37533 21.3713 5.70536C21.0411 6.0354 20.8554 6.48299 20.855 6.94982ZM8.85365 26.7282C7.4229 26.663 6.64525 26.4247 6.12846 26.2234C5.44332 25.9567 4.95447 25.639 4.4405 25.1257C3.92653 24.6125 3.60838 24.1241 3.34282 23.439C3.14136 22.9225 2.90304 22.1446 2.838 20.714C2.76686 19.1672 2.75266 18.7025 2.75266 14.7838C2.75266 10.865 2.76803 10.4017 2.838 8.85361C2.90316 7.42292 3.14324 6.64659 3.34282 6.12853C3.60955 5.44342 3.92723 4.95459 4.4405 4.44064C4.95377 3.92669 5.44215 3.60855 6.12846 3.343C6.64502 3.14155 7.4229 2.90324 8.85365 2.83821C10.4005 2.76706 10.8652 2.75286 14.7823 2.75286C18.6994 2.75286 19.1646 2.76824 20.7127 2.83821C22.1434 2.90336 22.9198 3.14343 23.4379 3.343C24.123 3.60855 24.6119 3.92739 25.1259 4.44064C25.6398 4.95389 25.9568 5.44342 26.2235 6.12853C26.425 6.64507 26.6633 7.42292 26.7283 8.85361C26.7995 10.4017 26.8137 10.865 26.8137 14.7838C26.8137 18.7025 26.7995 19.1659 26.7283 20.714C26.6632 22.1446 26.4237 22.9223 26.2235 23.439C25.9568 24.1241 25.6391 24.613 25.1259 25.1257C24.6126 25.6385 24.123 25.9567 23.4379 26.2234C22.9213 26.4248 22.1434 26.6631 20.7127 26.7282C19.1659 26.7993 18.7012 26.8135 14.7823 26.8135C10.8634 26.8135 10.4 26.7993 8.85365 26.7282ZM8.73214 0.198242C7.16991 0.269383 6.1024 0.517085 5.17014 0.879834C4.20465 1.25444 3.38731 1.757 2.57057 2.57242C1.75383 3.38785 1.25253 4.20644 0.877911 5.17189C0.515149 6.1047 0.267437 7.17158 0.196293 8.73375C0.123975 10.2984 0.107422 10.7986 0.107422 14.7837C0.107422 18.7687 0.123975 19.2689 0.196293 20.8336C0.267437 22.3959 0.515149 23.4626 0.877911 24.3954C1.25253 25.3603 1.75394 26.1798 2.57057 26.9949C3.3872 27.81 4.20465 28.3118 5.17014 28.6875C6.10416 29.0502 7.16991 29.2979 8.73214 29.3691C10.2977 29.4402 10.7971 29.4579 14.7823 29.4579C18.7675 29.4579 19.2678 29.4414 20.8325 29.3691C22.3948 29.2979 23.4616 29.0502 24.3945 28.6875C25.3594 28.3118 26.1773 27.8103 26.994 26.9949C27.8108 26.1795 28.311 25.3603 28.6867 24.3954C29.0494 23.4626 29.2983 22.3957 29.3683 20.8336C29.4394 19.2678 29.456 18.7687 29.456 14.7837C29.456 10.7986 29.4394 10.2984 29.3683 8.73375C29.2972 7.17146 29.0494 6.10411 28.6867 5.17189C28.311 4.20702 27.8095 3.38914 26.994 2.57242C26.1786 1.75571 25.3594 1.25444 24.3956 0.879834C23.4616 0.517085 22.3947 0.268209 20.8336 0.198242C19.2689 0.127102 18.7687 0.109375 14.7835 0.109375C10.7982 0.109375 10.2977 0.125928 8.73214 0.198242Z" fill="black"/>
<path d="M9.89145 14.7837C9.89145 12.0823 12.0808 9.89184 14.7823 9.89184C17.4838 9.89184 19.6743 12.0823 19.6743 14.7837C19.6743 17.485 17.4838 19.6755 14.7823 19.6755C12.0808 19.6755 9.89145 17.485 9.89145 14.7837ZM7.24692 14.7837C7.24692 18.9453 10.6205 22.3187 14.7823 22.3187C18.9441 22.3187 22.3177 18.9453 22.3177 14.7837C22.3177 10.622 18.9441 7.24859 14.7823 7.24859C10.6205 7.24859 7.24692 10.622 7.24692 14.7837ZM20.855 6.94982C20.8549 7.2981 20.958 7.6386 21.1514 7.92825C21.3448 8.21791 21.6197 8.44372 21.9414 8.57713C22.2632 8.71054 22.6172 8.74555 22.9588 8.67774C23.3005 8.60993 23.6143 8.44235 23.8607 8.19618C24.1071 7.95001 24.2749 7.63631 24.343 7.29476C24.4111 6.9532 24.3763 6.59912 24.2432 6.27731C24.11 5.95549 23.8844 5.68038 23.5949 5.48677C23.3054 5.29316 22.965 5.18975 22.6167 5.18961H22.616C22.1491 5.18983 21.7014 5.37533 21.3713 5.70536C21.0411 6.0354 20.8554 6.48299 20.855 6.94982ZM8.85365 26.7282C7.4229 26.663 6.64525 26.4247 6.12846 26.2234C5.44332 25.9567 4.95447 25.639 4.4405 25.1257C3.92653 24.6125 3.60838 24.1241 3.34282 23.439C3.14136 22.9225 2.90304 22.1446 2.838 20.714C2.76686 19.1672 2.75266 18.7025 2.75266 14.7838C2.75266 10.865 2.76803 10.4017 2.838 8.85361C2.90316 7.42292 3.14324 6.64659 3.34282 6.12853C3.60955 5.44342 3.92723 4.95459 4.4405 4.44064C4.95377 3.92669 5.44215 3.60855 6.12846 3.343C6.64502 3.14155 7.4229 2.90324 8.85365 2.83821C10.4005 2.76706 10.8652 2.75286 14.7823 2.75286C18.6994 2.75286 19.1646 2.76824 20.7127 2.83821C22.1434 2.90336 22.9198 3.14343 23.4379 3.343C24.123 3.60855 24.6119 3.92739 25.1259 4.44064C25.6398 4.95389 25.9568 5.44342 26.2235 6.12853C26.425 6.64507 26.6633 7.42292 26.7283 8.85361C26.7995 10.4017 26.8137 10.865 26.8137 14.7838C26.8137 18.7025 26.7995 19.1659 26.7283 20.714C26.6632 22.1446 26.4237 22.9223 26.2235 23.439C25.9568 24.1241 25.6391 24.613 25.1259 25.1257C24.6126 25.6385 24.123 25.9567 23.4379 26.2234C22.9213 26.4248 22.1434 26.6631 20.7127 26.7282C19.1659 26.7993 18.7012 26.8135 14.7823 26.8135C10.8634 26.8135 10.4 26.7993 8.85365 26.7282ZM8.73214 0.198242C7.16991 0.269383 6.1024 0.517085 5.17014 0.879834C4.20465 1.25444 3.38731 1.757 2.57057 2.57242C1.75383 3.38785 1.25253 4.20644 0.877911 5.17189C0.515149 6.1047 0.267437 7.17158 0.196293 8.73375C0.123975 10.2984 0.107422 10.7986 0.107422 14.7837C0.107422 18.7687 0.123975 19.2689 0.196293 20.8336C0.267437 22.3959 0.515149 23.4626 0.877911 24.3954C1.25253 25.3603 1.75394 26.1798 2.57057 26.9949C3.3872 27.81 4.20465 28.3118 5.17014 28.6875C6.10416 29.0502 7.16991 29.2979 8.73214 29.3691C10.2977 29.4402 10.7971 29.4579 14.7823 29.4579C18.7675 29.4579 19.2678 29.4414 20.8325 29.3691C22.3948 29.2979 23.4616 29.0502 24.3945 28.6875C25.3594 28.3118 26.1773 27.8103 26.994 26.9949C27.8108 26.1795 28.311 25.3603 28.6867 24.3954C29.0494 23.4626 29.2983 22.3957 29.3683 20.8336C29.4394 19.2678 29.456 18.7687 29.456 14.7837C29.456 10.7986 29.4394 10.2984 29.3683 8.73375C29.2972 7.17146 29.0494 6.10411 28.6867 5.17189C28.311 4.20702 27.8095 3.38914 26.994 2.57242C26.1786 1.75571 25.3594 1.25444 24.3956 0.879834C23.4616 0.517085 22.3947 0.268209 20.8336 0.198242C19.2689 0.127102 18.7687 0.109375 14.7835 0.109375C10.7982 0.109375 10.2977 0.125928 8.73214 0.198242Z" fill="black"/>
</svg>
