<svg width="77" height="73" viewBox="0 0 77 73" fill="none" xmlns="http://www.w3.org/2000/svg">
<path d="M48.7325 7.05415L74.5624 53.7346C75.4789 55.4007 76 57.3147 76 59.3506C76 65.7958 70.7752 71.0207 64.3299 71.0207H12.6701C6.22495 71.0207 1 65.7958 1 59.3506C1 57.3147 1.52126 55.4007 2.43776 53.7346L28.2676 7.05415C30.2523 3.44543 34.0906 1 38.5 1C42.9094 1 46.7477 3.44543 48.7325 7.05415Z" stroke="white" stroke-width="2" stroke-miterlimit="10" stroke-linecap="round" stroke-linejoin="round"/>
<path d="M43.1682 57.0166C43.1682 59.5948 41.0782 61.6846 38.5002 61.6846C35.9221 61.6846 33.8321 59.5948 33.8321 57.0166C33.8321 54.4384 35.9221 52.3485 38.5002 52.3485C41.0782 52.3485 43.1682 54.4384 43.1682 57.0166Z" stroke="white" stroke-width="2" stroke-miterlimit="10" stroke-linecap="round" stroke-linejoin="round"/>
<path d="M38.5002 43.0124C35.9221 43.0124 33.8321 40.9226 33.8321 38.3444V19.6722C33.8321 17.094 35.9221 15.0041 38.5002 15.0041C41.0782 15.0041 43.1682 17.094 43.1682 19.6722V38.3444C43.1682 40.9226 41.0782 43.0124 38.5002 43.0124Z" stroke="white" stroke-width="2" stroke-miterlimit="10" stroke-linecap="round" stroke-linejoin="round"/>
</svg>
