<svg width="28" height="28" viewBox="0 0 28 28" fill="none" xmlns="http://www.w3.org/2000/svg">
  <path d="M6.24385 24.4337C6.65975 20.5174 9.97351 17.4667 14 17.4667C18.0266 17.4667 21.3403 20.5176 21.756 24.4338M27 14C27 21.1797 21.1797 27 14 27C6.82017 27 1 21.1797 1 14C1 6.82017 6.82017 1 14 1C21.1797 1 27 6.82017 27 14ZM19.2 12.2666C19.2 15.1385 16.872 17.4666 14 17.4666C11.1279 17.4666 8.79995 15.1385 8.79995 12.2666C8.79995 9.39482 11.1279 7.06668 14 7.06668C16.872 7.06668 19.2 9.39482 19.2 12.2666Z" stroke="white" stroke-width="2" stroke-miterlimit="10" stroke-linecap="round" stroke-linejoin="round"/>
</svg>
