<svg width="29" height="22" viewBox="0 0 29 22" fill="none" xmlns="http://www.w3.org/2000/svg">
<path d="M27.9595 3.39911C27.8091 2.73365 27.5026 2.12394 27.0711 1.63154C26.6396 1.13915 26.0983 0.781518 25.5019 0.59477C23.323 0.00585947 14.6074 0.00585938 14.6074 0.00585938C14.6074 0.00585938 5.89183 0.00585938 3.71293 0.650857C3.11657 0.837604 2.57531 1.19524 2.1438 1.68763C1.71228 2.18002 1.40581 2.78974 1.25533 3.45519C0.856557 5.90276 0.661497 8.38565 0.672599 10.8727C0.658385 13.3784 0.853458 15.8802 1.25533 18.3462C1.42123 18.991 1.73457 19.5775 2.16507 20.0491C2.59558 20.5207 3.1287 20.8615 3.71293 21.0384C5.89183 21.6834 14.6074 21.6834 14.6074 21.6834C14.6074 21.6834 23.323 21.6834 25.5019 21.0384C26.0983 20.8516 26.6396 20.494 27.0711 20.0016C27.5026 19.5092 27.8091 18.8995 27.9595 18.2341C28.3552 15.8049 28.5503 13.341 28.5423 10.8727C28.5565 8.36693 28.3614 5.8651 27.9595 3.39911Z" fill="black"/>
<path d="M11.7567 15.4578L19.0408 10.8727L11.7567 6.28757V15.4578Z" fill="white"/>
</svg>
