<svg width="31" height="26" viewBox="0 0 31 26" fill="none" xmlns="http://www.w3.org/2000/svg">
<path d="M7.74475 14.8693L11.0483 24.0129C11.0483 24.0129 11.4613 24.8685 11.9036 24.8685C12.3458 24.8685 18.9238 18.0252 18.9238 18.0252L26.2388 3.89648L7.86263 12.509L7.74475 14.8693Z" fill="#3E3E3E"/>
<path d="M12.1227 17.2168L11.4885 23.9565C11.4885 23.9565 11.2231 26.0217 13.2877 23.9565C15.3524 21.8914 17.3287 20.2989 17.3287 20.2989" fill="#252525"/>
<path d="M7.80175 15.1962L1.00631 12.9821C1.00631 12.9821 0.194184 12.6526 0.45569 11.9055C0.509523 11.7514 0.618116 11.6203 0.942968 11.395C2.44866 10.3455 28.812 0.869772 28.812 0.869772C28.812 0.869772 29.5564 0.61894 29.9954 0.785775C30.104 0.819394 30.2017 0.881259 30.2786 0.965041C30.3554 1.04882 30.4087 1.15151 30.4328 1.26261C30.4802 1.45884 30.5001 1.66072 30.4917 1.86243C30.4897 2.03692 30.4685 2.19865 30.4525 2.45227C30.292 5.04296 25.4869 24.3782 25.4869 24.3782C25.4869 24.3782 25.1994 25.5096 24.1694 25.5483C23.9163 25.5565 23.6641 25.5136 23.4279 25.4222C23.1917 25.3309 22.9763 25.1929 22.7946 25.0165C20.7733 23.2778 13.7872 18.5828 12.2434 17.5502C12.2086 17.5265 12.1793 17.4956 12.1574 17.4596C12.1356 17.4235 12.1217 17.3832 12.1167 17.3414C12.0951 17.2326 12.2135 17.0978 12.2135 17.0978C12.2135 17.0978 24.3783 6.28482 24.7019 5.1497C24.727 5.06176 24.6323 5.01837 24.5052 5.05688C23.6972 5.35412 9.691 14.1991 8.14517 15.1753C8.0339 15.209 7.91629 15.2161 7.80175 15.1962Z" fill="black"/>
</svg>
