<svg width="35" height="24" viewBox="0 0 35 24" fill="none" xmlns="http://www.w3.org/2000/svg">
<path d="M12.7282 15.8219L12.726 15.8278C12.2063 17.1938 11.5094 18.5037 10.6632 19.7573C10.0346 20.6681 9.32706 21.4642 8.52676 22.1462L5.77661 20.2701C6.19251 19.6867 6.54335 19.1092 6.82918 18.5406C7.30262 17.5987 7.67904 16.645 7.95267 15.6614L8.40324 14.0418L6.743 13.778C5.99224 13.6586 5.31436 13.4233 4.66224 13.0542L4.66226 13.0542L4.65259 13.0488C4.01274 12.6928 3.46101 12.2398 3.01997 11.7103C2.55586 11.153 2.18801 10.5416 1.90903 9.81735L1.90906 9.81734L1.90515 9.8074C1.63715 9.12615 1.5 8.39496 1.5 7.62051C1.5 6.82471 1.66171 6.05989 1.99163 5.31355C2.33414 4.5573 2.794 3.89065 3.36641 3.33341C3.94782 2.7674 4.62227 2.31816 5.40054 1.9848C6.14977 1.66387 6.94777 1.5 7.82792 1.5C8.71339 1.5 9.57321 1.66593 10.3643 1.991C11.1654 2.32808 11.844 2.77511 12.3884 3.31936C12.9537 3.88458 13.4177 4.5594 13.7608 5.31863L13.762 5.32132C14.1077 6.08219 14.269 6.84393 14.269 7.63887C14.269 8.86191 14.1468 10.1884 13.8955 11.6215C13.6481 13.0319 13.2591 14.4439 12.7282 15.8219ZM31.5718 15.8219L31.5696 15.8278C31.0454 17.2055 30.3635 18.5169 29.5216 19.7633C28.9091 20.6703 28.2059 21.4658 27.4049 22.1487L24.6481 20.2822C25.077 19.6963 25.4354 19.111 25.7163 18.529C26.187 17.591 26.5615 16.6409 26.834 15.6614L27.2846 14.0418L25.6243 13.778C24.8736 13.6586 24.1957 13.4233 23.5436 13.0542L23.5436 13.0542L23.5339 13.0488C22.8955 12.6936 22.3358 12.2367 21.8668 11.6918C21.3958 11.1445 21.0312 10.5407 20.7526 9.81735L20.7527 9.81734L20.7487 9.8074C20.4807 9.12615 20.3436 8.39496 20.3436 7.62051C20.3436 6.8247 20.5053 6.05988 20.8352 5.31354C21.1777 4.55729 21.6376 3.89065 22.21 3.33341C22.7914 2.7674 23.4659 2.31816 24.2441 1.9848C24.9934 1.66387 25.7914 1.5 26.6715 1.5C27.5643 1.5 28.44 1.66855 29.203 1.98897C30.0044 2.32551 30.6922 2.77574 31.2651 3.33341C31.8392 3.89236 32.2935 4.5548 32.6129 5.29505L32.6144 5.29871C32.9508 6.07269 33.1126 6.84294 33.1126 7.63887C33.1126 8.86191 32.9904 10.1884 32.739 11.6215C32.4917 13.0319 32.1027 14.4439 31.5718 15.8219Z" stroke="#006881" stroke-width="3"/>
</svg>
