<svg width="357" height="117" viewBox="0 0 357 117" fill="none" xmlns="http://www.w3.org/2000/svg">
<path fill-rule="evenodd" clip-rule="evenodd" d="M53.8587 0.109979C53.4757 0.166014 52.0805 0.361339 50.7124 0.528831C49.3717 0.69635 46.8274 1.19885 45.1039 1.64551C32.6826 4.7444 21.9578 11.333 13.9961 20.7414C6.30808 29.815 1.84853 40.1444 0.371177 52.1491C-1.29781 66.0803 2.724 81.212 11.1781 92.6861C20.8907 105.863 34.8168 114.127 51.2596 116.528C55.2268 117.086 62.9969 117.17 66.7179 116.667C77.5247 115.216 87.3742 111.251 95.5548 105.082C97.8802 103.323 101.738 99.9449 101.738 99.6655C101.738 99.4702 87.6477 85.595 85.5411 83.7245L84.5564 82.8311L82.1213 84.8132C75.6371 90.1176 68.6877 92.7697 60.4252 93.1048C53.8042 93.3562 48.5785 92.2114 42.7784 89.28C27.0738 81.3515 19.6047 63.6513 24.9945 47.2076C27.9219 38.3297 33.8589 31.2663 42.0943 26.9113C47.5661 24.0358 52.6822 22.7794 59.0571 22.8074C68.7422 22.8074 76.5397 25.9061 83.9815 32.6624L86.6081 35.0634L94.7887 26.967C99.2757 22.5003 102.996 18.7592 103.051 18.6475C103.16 18.3405 98.4822 14.1249 95.6093 11.9752C87.7847 6.08441 79.1389 2.37135 69.1803 0.61248C66.7179 0.193631 55.5551 -0.197207 53.8587 0.109979ZM65.0215 7.5083C71.1227 8.1783 77.388 9.99302 82.7231 12.6172C85.5957 14.0411 92.1895 18.2847 92.5999 18.9825C92.7093 19.178 91.5053 20.5739 89.6177 22.4722L86.444 25.655L84.775 24.3986C76.5945 18.2288 65.432 15.1299 55.2268 16.135C53.339 16.3025 51.6974 16.47 51.5607 16.4978C51.2596 16.5538 49.1531 8.90414 49.3172 8.42947C49.4265 8.15028 50.9313 7.87111 54.8164 7.39663C56.6768 7.14527 62.5317 7.22911 65.0215 7.5083ZM43.5169 14.0691C44.0915 16.3025 44.5019 18.2569 44.4197 18.3685C44.3378 18.508 43.818 18.7594 43.2434 18.9547C42.6962 19.1222 40.9451 19.9597 39.3584 20.7694C27.5939 26.8555 19.7416 37.1572 17.2244 49.8322C16.8963 51.3675 16.65 53.0424 16.65 53.5171V54.3828H12.1357C8.98942 54.3828 7.62147 54.299 7.62147 54.0756C7.62147 52.8191 8.6064 47.4592 9.29025 44.9741C12.9018 31.8808 21.7389 20.7136 34.0233 13.7619C35.61 12.8686 41.9027 10.021 42.3677 9.99302C42.4499 9.99302 42.9694 11.8355 43.5169 14.0691ZM16.732 63.2606C17.2244 67.923 19.3311 74.2043 21.8209 78.5596C26.4721 86.6279 34.4338 93.6075 42.4499 96.6783C43.1612 96.9576 43.7358 97.2087 43.7358 97.2648C43.7358 97.3205 43.3256 98.9119 42.8056 100.81C42.2858 102.681 41.7386 104.747 41.5745 105.389L41.2734 106.534L39.5499 105.836C35.227 104.077 30.7402 101.425 26.6363 98.2697C24.2831 96.4549 19.4953 91.4856 17.5527 88.8613C11.9989 81.3515 8.36007 71.8874 7.70346 63.2887L7.5393 61.0552L16.5131 61.2228L16.732 63.2606ZM87.6205 95.45C89.5084 97.3205 91.0677 98.9397 91.0677 99.0515C91.0677 99.4702 85.8146 102.737 82.5041 104.356C78.4004 106.394 74.5428 107.706 69.8639 108.739C66.5535 109.437 65.8422 109.493 59.7413 109.52C54.4607 109.52 52.6551 109.409 50.4937 109.018C48.2774 108.571 47.8398 108.404 47.9491 108.041C48.031 107.762 48.6059 105.696 49.2076 103.379C49.837 101.089 50.357 99.163 50.3842 99.1353C50.4389 99.1073 51.0135 99.2188 51.67 99.4144C52.4361 99.6097 55.2816 99.7215 59.0571 99.7215C64.3924 99.7215 65.5687 99.6377 67.8941 99.1073C73.2021 97.9068 79.0843 95.478 82.4496 93.1051C83.2157 92.5743 83.8996 92.1276 84.0089 92.0999C84.0911 92.0719 85.7327 93.5798 87.6205 95.45Z" fill="#007680"/>
<path fill-rule="evenodd" clip-rule="evenodd" d="M156.155 24.0142C155.225 25.9129 146.907 42.6637 137.687 61.2848C128.439 79.8782 120.888 95.1774 120.888 95.2609C120.888 95.3447 124.418 95.4285 128.768 95.4285H136.62L139.766 88.6445L142.94 81.8885L158.945 81.8044L174.978 81.7487L178.206 88.5887L181.462 95.4288H189.232C195.333 95.4288 196.975 95.3447 196.866 95.0656C196.811 94.898 188.466 78.0914 178.371 57.7391L160.04 20.7481L157.851 20.5806L156.155 24.0142ZM164.773 58.7165C167.865 65.305 170.409 70.805 170.409 70.9168C170.409 71.0561 165.238 71.1398 158.891 71.1398C152.434 71.1398 147.427 71.0283 147.482 70.8888C148.221 68.8787 158.836 46.4045 158.973 46.5443C159.082 46.6278 161.681 52.0998 164.773 58.7165Z" fill="black"/>
<path fill-rule="evenodd" clip-rule="evenodd" d="M322.227 22.1397C313.172 23.6472 306.387 26.9695 300.888 32.5811C296.483 37.0759 293.719 42.0729 292.131 48.4383C289.532 58.9356 291.038 70.6053 296.1 79.0923C300.503 86.5186 307.509 91.823 316.317 94.4193C323.377 96.5132 332.187 96.8203 339.765 95.2569C344.498 94.2798 351.337 91.4318 355.55 88.6679L357 87.7468L353.827 82.163C352.103 79.0923 350.571 76.4677 350.462 76.3562C350.326 76.2166 349.56 76.5518 348.767 77.082C343.567 80.4601 337.712 82.4144 331.556 82.7495C320.504 83.3915 311.667 79.3434 307.427 71.694C304.525 66.4734 303.705 58.0977 305.429 51.1741C305.647 50.2527 306.387 48.3545 307.044 46.9864C309.834 41.2076 315.088 37.3547 322.254 35.7633C325.51 35.0656 333.198 35.0656 336.483 35.7914C339.792 36.5171 344.716 38.2481 348.903 40.1186C350.874 41.012 352.542 41.71 352.595 41.6543C352.651 41.5982 352.981 38.639 353.334 35.0656L353.991 28.5607L353.39 28.0302C351.446 26.4108 344.689 23.8145 339.353 22.67C336.563 22.0558 335.195 21.9441 330.325 21.8325C326.276 21.7764 323.895 21.8605 322.227 22.1397Z" fill="black"/>
<path fill-rule="evenodd" clip-rule="evenodd" d="M208.442 95.4274H223.49V22.2821H208.442V95.4274Z" fill="black"/>
<path fill-rule="evenodd" clip-rule="evenodd" d="M242.639 95.419H257.413V61.3588H275.743V49.9126H257.413V33.9994H283.952V22.553H242.639V95.419Z" fill="black"/>
<path fill-rule="evenodd" clip-rule="evenodd" d="M56.2373 35.7047C47.0169 36.7934 39.2742 43.6892 37.0307 52.8462C36.4016 55.3587 36.4016 59.9931 37.0033 62.5339C39.8762 74.7899 52.352 82.3835 64.5269 79.3125C78.3982 75.7948 85.4296 60.9425 79.3287 48.1283C76.0727 41.316 69.4515 36.6819 61.5175 35.6767C59.0003 35.3696 58.9458 35.3696 56.2373 35.7047ZM63.0224 42.5165C68.549 43.9963 73.1179 48.575 74.5134 54.0187C75.0332 56.001 75.0332 59.6302 74.5408 61.5287C73.1453 66.945 68.6037 71.5233 63.2413 72.9472C61.2167 73.4776 56.8938 73.4776 54.8418 72.9472C49.5615 71.5513 45.1019 67.1123 43.5971 61.8079C42.8858 59.2953 43.1319 54.5772 44.1169 52.1482C45.9773 47.5138 50.0539 43.8845 54.9511 42.5445C56.9486 41.986 60.9978 41.986 63.0224 42.5165Z" fill="black"/>
</svg>
