<svg width="1920" height="543" viewBox="0 0 1920 543" fill="none" xmlns="http://www.w3.org/2000/svg">
<path d="M-2216.61 -47H-1734.55V543H-2216.61V-47Z" fill="#F1F1F1"/>
<path d="M-2838 -47H-2355.95V543H-2838V-47Z" fill="#F1F1F1"/>
<path d="M-1516.12 248C-1516.12 359.719 -1597.06 450.286 -1696.89 450.286C-1796.73 450.286 -1877.66 359.719 -1877.66 248C-1877.66 136.281 -1796.73 45.7143 -1696.89 45.7143C-1597.06 45.7143 -1516.12 136.281 -1516.12 248Z" fill="white"/>
<path d="M-2107.39 248C-2107.39 359.719 -2216.99 450.286 -2352.18 450.286C-2487.38 450.286 -2596.97 359.719 -2596.97 248C-2596.97 136.281 -2487.38 45.7143 -2352.18 45.7143C-2216.99 45.7143 -2107.39 136.281 -2107.39 248Z" fill="#ECECEC"/>
<path d="M-1361.72 -47H-879.665V543H-1361.72V-47Z" fill="#939393"/>
<path d="M-73.7346 -47H408.317V543H-73.7346V-47Z" fill="#F1F1F1"/>
<path d="M-1644.17 222.714C-1644.17 73.7552 -1536.26 -47 -1403.14 -47C-1270.03 -47 -1162.12 73.7552 -1162.12 222.714V273.286C-1162.12 422.245 -1270.03 543 -1403.14 543C-1536.26 543 -1644.17 422.245 -1644.17 273.286V222.714Z" fill="#F1F1F1"/>
<path d="M-1041.6 222.714C-1041.6 73.7552 -933.693 -47 -800.578 -47C-667.463 -47 -559.552 73.7552 -559.552 222.714V273.286C-559.552 422.245 -667.463 543 -800.578 543C-933.693 543 -1041.6 422.245 -1041.6 273.286V222.714Z" fill="#F1F1F1"/>
<path d="M50.5444 248C50.5444 359.719 -30.3889 450.286 -130.225 450.286C-230.061 450.286 -310.994 359.719 -310.994 248C-310.994 136.281 -230.061 45.7143 -130.225 45.7143C-30.3889 45.7143 50.5444 136.281 50.5444 248Z" fill="white"/>
<path d="M-613.027 -47L-98.9854 253.458L-613.027 543V-47Z" fill="#F1F1F1"/>
<path d="M754.792 250.107C754.792 402.558 644.352 526.143 508.117 526.143C371.882 526.143 261.442 402.558 261.442 250.107C261.442 97.6569 371.882 -25.9286 508.117 -25.9286C644.352 -25.9286 754.792 97.6569 754.792 250.107Z" fill="white"/>
<path d="M1206.72 -47H1688.77V543H1206.72V-47Z" fill="#F1F1F1"/>
<path d="M585.321 -47H1067.37V543H585.321V-47Z" fill="#F1F1F1"/>
<path d="M1907.2 248C1907.2 359.719 1826.26 450.286 1726.43 450.286C1626.59 450.286 1545.66 359.719 1545.66 248C1545.66 136.281 1626.59 45.7143 1726.43 45.7143C1826.26 45.7143 1907.2 136.281 1907.2 248Z" fill="white"/>
<path d="M1315.93 248C1315.93 359.719 1206.33 450.286 1071.14 450.286C935.943 450.286 826.346 359.719 826.346 248C826.346 136.281 935.943 45.7143 1071.14 45.7143C1206.33 45.7143 1315.93 136.281 1315.93 248Z" fill="#ECECEC"/>
<path d="M2061.6 -47H2543.66V543H2061.6V-47Z" fill="#939393"/>
<path d="M1779.15 222.714C1779.15 73.7552 1887.06 -47 2020.18 -47C2153.29 -47 2261.2 73.7552 2261.2 222.714V273.286C2261.2 422.245 2153.29 543 2020.18 543C1887.06 543 1779.15 422.245 1779.15 273.286V222.714Z" fill="#F1F1F1"/>
<path d="M3289.33 -47H3771.38V543H3289.33V-47Z" fill="#F1F1F1"/>
<path d="M2321.46 222.714C2321.46 73.7552 2429.37 -47 2562.49 -47C2695.6 -47 2803.51 73.7552 2803.51 222.714V273.286C2803.51 422.245 2695.6 543 2562.49 543C2429.37 543 2321.46 422.245 2321.46 273.286V222.714Z" fill="#F1F1F1"/>
<path d="M3413.61 248C3413.61 359.719 3332.68 450.286 3232.84 450.286C3133 450.286 3052.07 359.719 3052.07 248C3052.07 136.281 3133 45.7143 3232.84 45.7143C3332.68 45.7143 3413.61 136.281 3413.61 248Z" fill="white"/>
<path d="M2765.1 -47L3264.08 253.458L2765.1 542.999V-47Z" fill="#F1F1F1"/>
<path d="M4117.86 250.107C4117.86 402.558 4007.42 526.143 3871.18 526.143C3734.95 526.143 3624.51 402.558 3624.51 250.107C3624.51 97.6569 3734.95 -25.9286 3871.18 -25.9286C4007.42 -25.9286 4117.86 97.6569 4117.86 250.107Z" fill="white"/>
<path d="M4550.95 -47H5033V543H4550.95V-47Z" fill="#F1F1F1"/>
<path d="M3929.55 -47H4411.61V543H3929.55V-47Z" fill="#F1F1F1"/>
<path d="M4660.16 248C4660.16 359.719 4550.57 450.286 4415.37 450.286C4280.18 450.286 4170.58 359.719 4170.58 248C4170.58 136.281 4280.18 45.7143 4415.37 45.7143C4550.57 45.7143 4660.16 136.281 4660.16 248Z" fill="#ECECEC"/>
</svg>
