<svg width="1920" height="509" viewBox="0 0 1920 509" fill="none" xmlns="http://www.w3.org/2000/svg">
<path d="M-1221.66 0H-920.398V509H-1221.66V0Z" fill="#F1F1F1"/>
<path d="M-1610 0H-1308.74V509H-1610V0Z" fill="#F1F1F1"/>
<path d="M-783.89 254.5C-783.89 350.882 -834.47 429.014 -896.863 429.014C-959.255 429.014 -1009.83 350.882 -1009.83 254.5C-1009.83 158.118 -959.255 79.9858 -896.863 79.9858C-834.47 79.9858 -783.89 158.118 -783.89 254.5Z" fill="white"/>
<path d="M-1153.4 254.5C-1153.4 350.882 -1221.9 429.014 -1306.39 429.014C-1390.88 429.014 -1459.37 350.882 -1459.37 254.5C-1459.37 158.118 -1390.88 79.9858 -1306.39 79.9858C-1221.9 79.9858 -1153.4 158.118 -1153.4 254.5Z" fill="#ECECEC"/>
<path d="M-687.393 0H-386.134V509H-687.393V0Z" fill="#DDDDDD"/>
<path d="M117.534 0H418.794V509H117.534V0Z" fill="#F1F1F1"/>
<path d="M-863.912 232.686C-863.912 104.177 -796.473 0 -713.283 0C-630.092 0 -562.653 104.177 -562.653 232.686V276.314C-562.653 404.823 -630.092 509 -713.283 509C-796.473 509 -863.912 404.823 -863.912 276.314V232.686Z" fill="#F1F1F1"/>
<path d="M-487.338 232.686C-487.338 104.177 -419.899 0 -336.708 0C-253.518 0 -186.079 104.177 -186.079 232.686V276.314C-186.079 404.823 -253.518 509 -336.708 509C-419.899 509 -487.338 404.823 -487.338 276.314V232.686Z" fill="#F1F1F1"/>
<path d="M195.203 254.5C195.203 350.882 144.623 429.014 82.2305 429.014C19.8375 429.014 -30.7418 350.882 -30.7418 254.5C-30.7418 158.118 19.8375 79.9858 82.2305 79.9858C144.623 79.9858 195.203 158.118 195.203 254.5Z" fill="white"/>
<path d="M-219.498 0L101.754 259.209L-219.498 509V0Z" fill="#F1F1F1"/>
<path d="M635.324 256.318C635.324 387.839 566.304 494.457 481.164 494.457C396.024 494.457 327.004 387.839 327.004 256.318C327.004 124.797 396.024 18.1786 481.164 18.1786C566.304 18.1786 635.324 124.797 635.324 256.318Z" fill="white"/>
<path d="M917.754 0H1219.01V509H917.754V0Z" fill="#F1F1F1"/>
<path d="M529.412 0H830.672V509H529.412V0Z" fill="#F1F1F1"/>
<path d="M1355.52 254.5C1355.52 350.882 1304.94 429.014 1242.55 429.014C1180.16 429.014 1129.58 350.882 1129.58 254.5C1129.58 158.118 1180.16 79.9858 1242.55 79.9858C1304.94 79.9858 1355.52 158.118 1355.52 254.5Z" fill="white"/>
<path d="M986.009 254.5C986.009 350.882 917.516 429.014 833.025 429.014C748.535 429.014 680.042 350.882 680.042 254.5C680.042 158.118 748.535 79.9858 833.025 79.9858C917.516 79.9858 986.009 158.118 986.009 254.5Z" fill="#ECECEC"/>
<path d="M1452.02 0H1753.28V509H1452.02V0Z" fill="#CDCDCD"/>
<path d="M1275.5 232.686C1275.5 104.177 1342.94 0 1426.13 0C1509.32 0 1576.76 104.177 1576.76 232.686V276.314C1576.76 404.823 1509.32 509 1426.13 509C1342.94 509 1275.5 404.823 1275.5 276.314V232.686Z" fill="#F1F1F1"/>
<path d="M2219.29 0H2520.55V509H2219.29V0Z" fill="#F1F1F1"/>
<path d="M1614.42 232.686C1614.42 104.177 1681.86 0 1765.05 0C1848.24 0 1915.68 104.177 1915.68 232.686V276.314C1915.68 404.823 1848.24 509 1765.05 509C1681.86 509 1614.42 404.823 1614.42 276.314V232.686Z" fill="#F1F1F1"/>
<path d="M2296.96 254.5C2296.96 350.882 2246.38 429.014 2183.99 429.014C2121.59 429.014 2071.01 350.882 2071.01 254.5C2071.01 158.118 2121.59 79.9858 2183.99 79.9858C2246.38 79.9858 2296.96 158.118 2296.96 254.5Z" fill="white"/>
<path d="M1891.67 0L2203.51 259.209L1891.67 508.999V0Z" fill="#F1F1F1"/>
<path d="M2737.08 256.318C2737.08 387.839 2668.06 494.457 2582.92 494.457C2497.78 494.457 2428.76 387.839 2428.76 256.318C2428.76 124.797 2497.78 18.1786 2582.92 18.1786C2668.06 18.1786 2737.08 124.797 2737.08 256.318Z" fill="white"/>
<path d="M3007.74 0H3309V509H3007.74V0Z" fill="#F1F1F1"/>
<path d="M2619.4 0H2920.66V509H2619.4V0Z" fill="#F1F1F1"/>
<path d="M3076 254.5C3076 350.882 3007.5 429.014 2923.01 429.014C2838.52 429.014 2770.03 350.882 2770.03 254.5C2770.03 158.118 2838.52 79.9858 2923.01 79.9858C3007.5 79.9858 3076 158.118 3076 254.5Z" fill="#ECECEC"/>
</svg>
