<svg width="1920" height="409" viewBox="0 0 1920 409" fill="none" xmlns="http://www.w3.org/2000/svg">
<path d="M-395.921 0H-153.823V409H-395.921V0Z" fill="#F1F1F1"/>
<path d="M-708 0H-465.902V409H-708V0Z" fill="#F1F1F1"/>
<path d="M-44.1229 204.5C-44.1229 281.946 -84.7695 344.729 -134.91 344.729C-185.05 344.729 -225.696 281.946 -225.696 204.5C-225.696 127.054 -185.05 64.2715 -134.91 64.2715C-84.7695 64.2715 -44.1229 127.054 -44.1229 204.5Z" fill="white"/>
<path d="M-341.071 204.5C-341.071 281.946 -396.113 344.729 -464.011 344.729C-531.909 344.729 -586.951 281.946 -586.951 204.5C-586.951 127.054 -531.909 64.2715 -464.011 64.2715C-396.113 64.2715 -341.071 127.054 -341.071 204.5Z" fill="#ECECEC"/>
<path d="M33.424 0H275.522V409H33.424V0Z" fill="#DDDDDD"/>
<path d="M680.279 0H922.376V409H680.279V0Z" fill="#F1F1F1"/>
<path d="M-108.43 186.971C-108.43 83.71 -54.2346 0 12.6188 0C79.4722 0 133.668 83.71 133.668 186.971V222.029C133.668 325.29 79.4722 409 12.6188 409C-54.2346 409 -108.43 325.29 -108.43 222.029V186.971Z" fill="#F1F1F1"/>
<path d="M194.192 186.971C194.192 83.71 248.387 0 315.241 0C382.094 0 436.29 83.71 436.29 186.971V222.029C436.29 325.29 382.094 409 315.241 409C248.387 409 194.192 325.29 194.192 222.029V186.971Z" fill="#F1F1F1"/>
<path d="M742.694 204.5C742.694 281.946 702.048 344.729 651.908 344.729C601.768 344.729 561.121 281.946 561.121 204.5C561.121 127.054 601.768 64.2715 651.908 64.2715C702.048 64.2715 742.694 127.054 742.694 204.5Z" fill="white"/>
<path d="M409.434 0L667.597 208.284L409.434 409V0Z" fill="#F1F1F1"/>
<path d="M1096.38 205.961C1096.38 311.642 1040.92 397.314 972.498 397.314C904.078 397.314 848.612 311.642 848.612 205.961C848.612 100.279 904.078 14.6071 972.498 14.6071C1040.92 14.6071 1096.38 100.279 1096.38 205.961Z" fill="white"/>
<path d="M1323.35 0H1565.45V409H1323.35V0Z" fill="#F1F1F1"/>
<path d="M1011.27 0H1253.37V409H1011.27V0Z" fill="#F1F1F1"/>
<path d="M1675.15 204.5C1675.15 281.946 1634.5 344.729 1584.36 344.729C1534.22 344.729 1493.58 281.946 1493.58 204.5C1493.58 127.054 1534.22 64.2715 1584.36 64.2715C1634.5 64.2715 1675.15 127.054 1675.15 204.5Z" fill="white"/>
<path d="M1378.2 204.5C1378.2 281.946 1323.16 344.729 1255.26 344.729C1187.36 344.729 1132.32 281.946 1132.32 204.5C1132.32 127.054 1187.36 64.2715 1255.26 64.2715C1323.16 64.2715 1378.2 127.054 1378.2 204.5Z" fill="#ECECEC"/>
<path d="M1752.7 0H1994.79V409H1752.7V0Z" fill="#F8F8F8"/>
<path d="M1610.84 186.971C1610.84 83.71 1665.04 0 1731.89 0C1798.74 0 1852.94 83.71 1852.94 186.971V222.029C1852.94 325.29 1798.74 409 1731.89 409C1665.04 409 1610.84 325.29 1610.84 222.029V186.971Z" fill="#F1F1F1"/>
<path d="M2369.29 0H2611.39V409H2369.29V0Z" fill="#F1F1F1"/>
<path d="M2431.7 204.5C2431.7 281.946 2391.06 344.729 2340.92 344.729C2290.78 344.729 2250.13 281.946 2250.13 204.5C2250.13 127.054 2290.78 64.2715 2340.92 64.2715C2391.06 64.2715 2431.7 127.054 2431.7 204.5Z" fill="white"/>
<path d="M2106.01 0L2356.61 208.284L2106.01 408.999V0Z" fill="#F1F1F1"/>
<path d="M2785.39 205.961C2785.39 311.642 2729.93 397.314 2661.51 397.314C2593.09 397.314 2537.62 311.642 2537.62 205.961C2537.62 100.279 2593.09 14.6071 2661.51 14.6071C2729.93 14.6071 2785.39 100.279 2785.39 205.961Z" fill="white"/>
<path d="M3002.9 0H3245V409H3002.9V0Z" fill="#F1F1F1"/>
<path d="M2690.82 0H2932.92V409H2690.82V0Z" fill="#F1F1F1"/>
<path d="M3057.75 204.5C3057.75 281.946 3002.71 344.729 2934.81 344.729C2866.91 344.729 2811.87 281.946 2811.87 204.5C2811.87 127.054 2866.91 64.2715 2934.81 64.2715C3002.71 64.2715 3057.75 127.054 3057.75 204.5Z" fill="#ECECEC"/>
</svg>
