<svg width="281" height="281" viewBox="0 0 281 281" fill="none" xmlns="http://www.w3.org/2000/svg">
<path d="M279.888 126.596C279.888 126.469 279.872 126.357 279.856 126.23C279.665 124.258 279.411 122.319 279.14 120.379C279.077 119.918 279.013 119.457 278.95 118.996C278.711 117.406 278.425 115.816 278.123 114.242C277.884 112.954 277.614 111.666 277.344 110.378C277.185 109.646 277.026 108.915 276.851 108.184C270.984 82.9821 258.232 59.8476 239.486 41.1015C217.305 18.921 188.987 5.1198 158.364 1.2084C158.157 1.1766 157.951 1.1607 157.728 1.1289C155.756 0.8904 153.785 0.6837 151.797 0.5247C151.177 0.477 150.557 0.4293 149.937 0.3816C148.299 0.2703 146.677 0.1908 145.024 0.1272C144.229 0.0953999 143.418 0.0794999 142.623 0.0635999C141.844 0.0635999 141.081 0 140.302 0C139.522 0 138.791 0.0476996 138.044 0.0476996C137.169 0.0476996 136.295 0.0794995 135.42 0.1113C133.957 0.159 132.495 0.2385 131.048 0.3339C130.189 0.3816 129.346 0.4452 128.488 0.5247C126.882 0.6519 125.292 0.8268 123.686 1.0017C123.05 1.0812 122.43 1.1448 121.794 1.2402C119.806 1.4946 117.819 1.8126 115.847 2.1624C115.657 2.1942 115.482 2.226 115.291 2.2578C99.0093 5.1675 83.475 10.9074 69.2922 19.2708C69.165 19.3503 69.0219 19.4139 68.8947 19.4934C67.575 20.2725 66.2871 21.0993 64.9992 21.9261C64.2519 22.4031 63.4887 22.8642 62.7414 23.3571C62.1849 23.7387 61.6284 24.1362 61.0719 24.5178C54.0282 29.3355 47.3184 34.8369 41.0697 41.0856C22.3077 59.8476 9.54 83.0139 3.6888 108.231C3.5457 108.851 3.4026 109.472 3.2754 110.092C2.9733 111.491 2.6871 112.89 2.4168 114.289C2.1306 115.8 1.8603 117.31 1.6377 118.837C1.5582 119.361 1.4787 119.902 1.4151 120.427C1.1448 122.319 0.9063 124.227 0.7155 126.151C0.6996 126.326 0.6837 126.485 0.6678 126.659C0.2385 131.143 0 135.675 0 140.27C0 144.865 0.238499 149.571 0.683699 154.15C0.683699 154.15 0.683699 154.182 0.683699 154.198C0.890399 156.313 1.1607 158.428 1.4628 160.51C1.4946 160.781 1.5423 161.067 1.5741 161.337C1.8444 163.166 2.1624 164.963 2.5122 166.759C2.6235 167.332 2.7189 167.904 2.8461 168.46C3.1482 169.955 3.498 171.45 3.8478 172.928C4.1658 174.28 4.5156 175.616 4.8813 176.935C5.0721 177.635 5.2629 178.318 5.4537 179.018C8.6814 190.307 13.3083 201.135 19.2867 211.263C19.3662 211.391 19.4298 211.518 19.5093 211.645C20.2884 212.965 21.1152 214.268 21.9579 215.556C22.4349 216.304 22.8801 217.051 23.373 217.798C23.7546 218.371 24.168 218.927 24.5655 219.5C29.3832 226.527 34.8687 233.221 41.1015 239.47C47.3661 245.735 54.0918 251.252 61.1673 256.07C61.7079 256.435 62.2326 256.817 62.7732 257.182C63.5364 257.691 64.3314 258.168 65.1105 258.661C66.3666 259.472 67.6386 260.283 68.9265 261.046C69.0855 261.142 69.2445 261.221 69.4035 261.316C83.5863 269.664 99.1047 275.388 115.37 278.298C115.498 278.314 115.641 278.345 115.768 278.361C117.787 278.711 119.838 279.029 121.873 279.299C122.462 279.379 123.034 279.443 123.622 279.522C125.26 279.713 126.914 279.888 128.567 280.015C129.378 280.079 130.189 280.142 131 280.19C132.495 280.285 134.005 280.365 135.516 280.412C136.342 280.444 137.185 280.46 138.012 280.476C138.791 280.476 139.554 280.54 140.333 280.54C141.112 280.54 141.923 280.492 142.718 280.476C143.482 280.476 144.245 280.444 145.008 280.428C146.693 280.381 148.379 280.285 150.048 280.174C150.621 280.142 151.209 280.094 151.781 280.047C153.817 279.888 155.836 279.681 157.855 279.427C158.014 279.411 158.173 279.395 158.348 279.363C188.987 275.467 217.321 261.666 239.502 239.47C245.734 233.237 251.236 226.527 256.038 219.5C256.435 218.927 256.849 218.371 257.23 217.798C257.723 217.067 258.168 216.304 258.645 215.556C259.472 214.252 260.299 212.965 261.094 211.645C261.173 211.518 261.237 211.391 261.316 211.263C267.279 201.151 271.906 190.355 275.134 179.082C275.372 178.271 275.595 177.46 275.801 176.649C276.119 175.441 276.437 174.216 276.724 172.992C277.089 171.482 277.439 169.955 277.741 168.413C277.852 167.888 277.948 167.363 278.043 166.839C278.393 164.994 278.727 163.15 278.997 161.29C279.029 161.067 279.061 160.828 279.093 160.606C280.063 153.976 280.571 147.186 280.571 140.286C280.571 135.659 280.333 131.08 279.904 126.58L279.888 126.596ZM140.286 260.967C137.742 260.347 135.198 259.663 132.638 258.884C131.763 253.971 130.936 248.263 130.173 241.791C133.512 240.297 136.867 238.659 140.238 236.894C143.625 238.675 147.011 240.328 150.382 241.839C149.619 248.294 148.792 253.987 147.918 258.884C145.374 259.663 142.83 260.347 140.27 260.967H140.286ZM147.711 260.108C147.552 260.935 147.409 261.714 147.25 262.493C145.708 262.191 144.165 261.889 142.623 261.539C144.324 261.094 146.01 260.633 147.695 260.124L147.711 260.108ZM137.948 261.523C136.406 261.873 134.864 262.191 133.337 262.477C133.178 261.698 133.035 260.919 132.876 260.108C134.562 260.617 136.263 261.078 137.948 261.523ZM140.286 19.6524C142.83 20.2725 145.39 20.9562 147.934 21.7353C148.808 26.6325 149.635 32.3247 150.398 38.7801C147.011 40.3065 143.609 41.9601 140.222 43.7409C136.867 41.976 133.512 40.3383 130.173 38.8437C130.936 32.3724 131.763 26.6484 132.638 21.7512C135.182 20.9721 137.726 20.2884 140.286 19.6683V19.6524ZM132.86 20.5269C133.019 19.7001 133.162 18.9051 133.321 18.126C134.848 18.4281 136.39 18.7302 137.932 19.08C136.247 19.5252 134.562 20.0181 132.86 20.5269ZM142.639 19.08C144.181 18.7302 145.708 18.4122 147.25 18.126C147.409 18.9051 147.552 19.7001 147.711 20.5269C146.026 20.0181 144.324 19.5252 142.639 19.08ZM245.146 101.045C246.402 103.255 247.611 105.481 248.755 107.723C248.326 109.297 247.849 110.887 247.356 112.493C246.752 108.613 246.005 104.797 245.162 101.045H245.146ZM248.39 140.302C248.39 148.156 247.865 155.868 246.895 163.372C244.256 155.804 240.885 148.077 236.815 140.302C240.901 132.527 244.256 124.799 246.895 117.231C247.865 124.735 248.39 132.447 248.39 140.302ZM246.577 114.893C243.938 122.812 240.456 130.937 236.194 139.109C231.981 131.223 227.036 123.289 221.423 115.45C227.736 105.719 232.887 96.3858 236.735 87.7521C239.025 91.0275 241.187 94.3506 243.206 97.7214C244.606 103.302 245.734 109.042 246.577 114.893ZM165.026 220.151C161.433 217.798 157.776 215.27 154.071 212.599C154.532 205.635 154.945 198.352 155.263 190.864C157.728 188.685 160.208 186.443 162.673 184.138C169.144 190.116 175.504 195.824 181.642 201.183C181.276 203.488 180.878 205.762 180.465 208.004C175.393 212.344 170.225 216.399 165.042 220.135L165.026 220.151ZM180.131 209.753C178.97 215.827 177.651 221.614 176.22 227.068C172.897 225.128 169.494 223.029 166.044 220.803C170.782 217.369 175.488 213.68 180.131 209.753ZM100.09 208.02C99.6771 205.778 99.2796 203.504 98.898 201.183C105.019 195.824 111.379 190.116 117.867 184.138C120.331 186.428 122.796 188.669 125.276 190.864C125.61 198.352 126.007 205.635 126.469 212.615C122.764 215.286 119.091 217.798 115.482 220.167C110.266 216.399 105.131 212.344 100.09 208.036V208.02ZM114.48 220.803C111.03 223.029 107.643 225.128 104.32 227.052C102.873 221.614 101.569 215.842 100.408 209.769C105.019 213.68 109.726 217.337 114.48 220.787V220.803ZM63.8226 169.653C62.6619 168.127 61.533 166.6 60.42 165.058C61.2468 163.802 62.0895 162.53 62.964 161.258C63.2025 164.088 63.4887 166.886 63.8226 169.653ZM60.42 115.529C61.533 113.987 62.6619 112.461 63.8226 110.934C63.4887 113.701 63.2025 116.499 62.964 119.33C62.1054 118.058 61.2468 116.786 60.42 115.529ZM63.2025 140.302C63.2025 134.276 63.4092 128.329 63.8385 122.494C67.8771 128.329 72.3291 134.291 77.115 140.302C72.3291 146.312 67.8771 152.274 63.8385 158.11C63.4251 152.274 63.2025 146.344 63.2025 140.302ZM115.482 60.4359C119.091 62.805 122.748 65.3172 126.469 67.9884C126.007 74.9526 125.594 82.2507 125.276 89.7396C122.812 91.9338 120.331 94.1598 117.867 96.4494C111.395 90.471 105.035 84.7629 98.9139 79.4046C99.2955 77.0832 99.6771 74.8095 100.106 72.5676C105.147 68.2587 110.282 64.2042 115.498 60.4359H115.482ZM100.408 70.8186C101.569 64.7607 102.873 58.9731 104.32 53.5353C107.643 55.4751 111.03 57.558 114.48 59.784C109.726 63.2343 105.019 66.9072 100.408 70.8027V70.8186ZM180.449 72.5994C180.862 74.8413 181.26 77.115 181.626 79.4205C175.504 84.7788 169.144 90.4869 162.673 96.4653C160.208 94.1757 157.728 91.9338 155.263 89.7555C154.93 82.2666 154.532 74.9685 154.071 68.0043C157.776 65.3331 161.433 62.8209 165.026 60.4677C170.225 64.2201 175.377 68.2587 180.449 72.5994ZM166.012 59.8158C169.462 57.5739 172.865 55.4751 176.204 53.5353C177.651 58.989 178.954 64.7607 180.115 70.8345C175.472 66.9072 170.75 63.2502 166.012 59.8158ZM187.016 122.7C192.342 128.583 197.351 134.466 202.025 140.302C197.351 146.137 192.342 152.02 187.016 157.903C187.254 152.131 187.381 146.264 187.381 140.302C187.381 134.339 187.254 128.472 187.016 122.7ZM186.936 120.983C186.841 119.027 186.745 117.088 186.618 115.148C192.756 108.438 198.607 101.887 204.029 95.6067C208.051 100.075 211.82 104.638 215.381 109.217C215.858 113.017 216.256 116.881 216.558 120.792C212.36 126.882 207.733 133.115 202.725 139.411C197.812 133.29 192.549 127.121 186.936 120.967V120.983ZM204.76 94.764C207.066 92.0928 209.292 89.4693 211.422 86.9253C212.917 93.3966 214.141 100.122 215.095 107.039C211.836 102.905 208.401 98.8026 204.76 94.764ZM204.029 93.969C201.294 90.948 198.464 87.9588 195.522 85.0173C192.581 82.0758 189.592 79.2456 186.571 76.5108C192.819 71.1366 198.655 66.303 203.949 62.0895C206.732 69.4512 209.133 77.3217 211.104 85.6056C208.862 88.2927 206.509 91.0911 204.029 93.969ZM194.743 85.7964C197.701 88.7538 200.547 91.7748 203.297 94.8117C198.193 100.727 192.597 107.023 186.523 113.653C185.76 101.776 184.472 90.4074 182.77 79.8021C183.772 78.9276 184.758 78.069 185.728 77.2263C188.765 79.977 191.786 82.8231 194.743 85.7805V85.7964ZM183.343 161.878C176.744 154.755 169.86 147.504 162.832 140.286C169.86 133.067 176.744 125.817 183.343 118.693C184.186 119.6 185.012 120.506 185.839 121.412C186.109 127.582 186.268 133.878 186.268 140.286C186.268 146.693 186.125 152.99 185.839 159.159C185.012 160.065 184.186 160.972 183.343 161.878ZM185.76 160.876C185.696 162.021 185.648 163.166 185.569 164.311C185.076 163.77 184.583 163.229 184.09 162.705C184.647 162.101 185.203 161.496 185.76 160.892V160.876ZM156.313 135.214C157.998 136.915 159.652 138.6 161.29 140.286C159.652 141.955 157.998 143.656 156.313 145.358C156.313 143.672 156.313 141.971 156.313 140.286C156.313 138.6 156.313 136.915 156.313 135.214ZM156.313 133.624C156.265 123.781 156.074 113.939 155.788 104.304C158.11 102.126 160.383 99.9951 162.625 97.9122C166.028 101.092 169.414 104.368 172.785 107.738C176.156 111.109 179.431 114.496 182.611 117.898C176.22 124.783 169.383 132.002 162.069 139.491C160.161 137.535 158.237 135.579 156.313 133.624ZM155.74 102.873C155.613 98.9616 155.47 95.082 155.311 91.2501C157.489 93.1899 159.668 95.1615 161.83 97.1808C159.811 99.057 157.776 100.949 155.725 102.873H155.74ZM155.74 177.683C157.776 179.606 159.811 181.498 161.846 183.359C159.668 185.378 157.489 187.35 155.327 189.29C155.486 185.458 155.629 181.594 155.756 177.667L155.74 177.683ZM155.788 176.252C156.074 166.616 156.249 156.774 156.313 146.932C158.237 144.976 160.161 143.021 162.069 141.065C169.383 148.554 176.236 155.772 182.611 162.657C179.431 166.06 176.156 169.446 172.785 172.817C169.414 176.188 166.028 179.463 162.625 182.643C160.383 180.56 158.094 178.43 155.788 176.252ZM184.09 117.867C184.583 117.326 185.076 116.785 185.569 116.261C185.632 117.406 185.696 118.55 185.76 119.695C185.203 119.091 184.647 118.487 184.09 117.883V117.867ZM182.564 78.5619C182.293 76.9242 182.007 75.2865 181.721 73.6806C182.802 74.6187 183.868 75.5409 184.949 76.5108C184.154 77.1945 183.375 77.8782 182.58 78.5778L182.564 78.5619ZM181.816 80.6289C183.502 91.3296 184.758 102.794 185.489 114.782C184.79 115.545 184.074 116.309 183.359 117.088C180.195 113.701 176.935 110.33 173.564 106.959C170.194 103.589 166.823 100.329 163.436 97.1649C169.86 91.2183 175.997 85.701 181.801 80.6289H181.816ZM150.827 150.875C147.25 154.453 143.72 157.951 140.238 161.337C136.772 157.935 133.242 154.453 129.649 150.875C128.17 149.396 126.723 147.934 125.276 146.487C125.276 144.436 125.26 142.385 125.26 140.302C125.26 138.219 125.26 136.168 125.276 134.117C126.723 132.654 128.17 131.207 129.649 129.728C133.226 126.151 136.756 122.653 140.238 119.266C143.704 122.668 147.234 126.151 150.827 129.728C152.306 131.207 153.753 132.67 155.2 134.117C155.2 136.168 155.216 138.219 155.216 140.302C155.216 142.385 155.216 144.436 155.2 146.487C153.753 147.95 152.306 149.396 150.827 150.875ZM155.184 148.061C155.12 157.521 154.961 166.6 154.723 175.25C150.271 171.036 145.708 166.664 141.033 162.1C144.579 158.65 148.108 155.152 151.606 151.654C152.799 150.462 153.991 149.253 155.184 148.061ZM139.443 162.1C134.768 166.664 130.205 171.052 125.753 175.25C125.515 166.584 125.356 157.521 125.292 148.061C126.484 149.269 127.677 150.462 128.869 151.654C132.367 155.152 135.913 158.65 139.459 162.1H139.443ZM125.292 132.511C125.356 123.05 125.515 113.971 125.753 105.322C130.205 109.535 134.768 113.908 139.443 118.471C135.897 121.921 132.367 125.419 128.854 128.917C127.661 130.11 126.469 131.318 125.276 132.511H125.292ZM141.033 118.471C145.708 113.908 150.271 109.519 154.723 105.322C154.961 113.987 155.12 123.05 155.184 132.511C153.991 131.302 152.799 130.11 151.606 128.917C148.108 125.419 144.563 121.921 141.017 118.471H141.033ZM153.976 66.7323C153.626 61.7238 153.244 56.8743 152.831 52.2315C156.599 54.5847 160.367 57.1128 164.104 59.784C160.765 61.9623 157.378 64.2837 153.96 66.7323H153.976ZM154.15 88.7538C149.794 84.9378 145.453 81.2808 141.128 77.8305C145.135 74.6346 149.11 71.5977 153.053 68.7357C153.483 75.048 153.848 81.726 154.15 88.7697V88.7538ZM154.214 90.2961C154.405 94.7004 154.564 99.2319 154.707 103.891C149.905 108.406 145.072 113.033 140.254 117.724C135.436 113.033 130.603 108.406 125.801 103.891C125.944 99.2319 126.103 94.7004 126.294 90.2961C130.968 86.1621 135.627 82.2348 140.254 78.5301C144.881 82.2507 149.539 86.178 154.214 90.2961ZM126.357 88.7538C126.659 81.7101 127.041 75.0321 127.454 68.7198C131.382 71.5818 135.373 74.6346 139.379 77.8146C135.055 81.2808 130.714 84.9219 126.357 88.7538ZM126.532 66.7323C123.098 64.2837 119.711 61.9623 116.372 59.7681C120.109 57.0969 123.893 54.5529 127.693 52.1838C127.279 56.8425 126.898 61.7079 126.548 66.7482L126.532 66.7323ZM94.6686 159.159C94.3983 152.99 94.2393 146.693 94.2393 140.286C94.2393 133.878 94.3824 127.582 94.6686 121.412C95.4954 120.506 96.3222 119.6 97.1649 118.693C103.763 125.817 110.648 133.067 117.676 140.286C110.648 147.504 103.763 154.755 97.1649 161.878C96.3222 160.972 95.4954 160.065 94.6686 159.159ZM96.4176 162.705C95.9247 163.245 95.4318 163.786 94.9389 164.311C94.8753 163.166 94.8117 162.021 94.7481 160.876C95.3046 161.48 95.8611 162.085 96.4176 162.689V162.705ZM94.7481 119.695C94.8117 118.55 94.8594 117.406 94.9389 116.261C95.4318 116.801 95.9247 117.342 96.4176 117.867C95.8611 118.471 95.3046 119.075 94.7481 119.679V119.695ZM124.72 104.32C124.433 113.955 124.258 123.797 124.195 133.64C122.271 135.595 120.347 137.551 118.439 139.507C111.125 132.018 104.272 124.799 97.8963 117.914C101.076 114.512 104.352 111.125 107.722 107.754C111.093 104.384 114.48 101.108 117.883 97.9281C120.14 100.011 122.414 102.142 124.72 104.32ZM118.662 97.1967C120.84 95.1774 123.018 93.2058 125.181 91.266C125.022 95.0979 124.879 98.9616 124.751 102.889C122.716 100.965 120.681 99.0729 118.646 97.1967H118.662ZM124.179 145.358C122.494 143.656 120.84 141.971 119.202 140.286C120.84 138.616 122.494 136.915 124.179 135.214C124.179 136.899 124.179 138.584 124.179 140.286C124.179 141.987 124.179 143.656 124.179 145.358ZM118.439 141.081C120.347 143.036 122.271 144.992 124.195 146.948C124.243 156.79 124.433 166.632 124.72 176.267C122.398 178.446 120.124 180.576 117.883 182.659C114.48 179.479 111.093 176.22 107.722 172.849C104.352 169.478 101.076 166.091 97.8963 162.689C104.288 155.804 111.125 148.586 118.439 141.097V141.081ZM124.767 177.698C124.894 181.61 125.038 185.489 125.197 189.321C123.018 187.381 120.84 185.394 118.678 183.375C120.697 181.499 122.732 179.606 124.783 177.698H124.767ZM117.056 97.1808C113.669 100.345 110.298 103.604 106.927 106.975C103.573 110.33 100.297 113.717 97.1331 117.103C96.4176 116.34 95.7021 115.561 95.0025 114.798C95.7339 102.809 96.99 91.3455 98.6754 80.6448C104.479 85.7169 110.616 91.2501 117.04 97.1808H117.056ZM97.944 78.5778C97.149 77.8782 96.354 77.1945 95.559 76.5108C96.6243 75.5568 97.7055 74.6187 98.7867 73.6806C98.5005 75.2865 98.2143 76.9242 97.944 78.5778ZM97.7373 79.8021C96.0201 90.4233 94.7481 101.776 93.9849 113.653C87.9111 107.023 82.3143 100.727 77.2104 94.8117C79.9611 91.7748 82.8072 88.7538 85.7646 85.7964C88.722 82.839 91.7271 79.9929 94.7799 77.2263C95.7498 78.069 96.7515 78.9276 97.7373 79.8021ZM84.9696 85.0014C82.0281 87.9429 79.1979 90.9321 76.4631 93.9531C73.9827 91.0752 71.6295 88.2768 69.3876 85.5897C71.3592 77.3058 73.7601 69.4353 76.5426 62.0736C81.8532 66.2871 87.6726 71.1048 93.9213 76.479C90.9003 79.2297 87.9111 82.0599 84.9696 84.9855V85.0014ZM75.7476 94.7481C72.1224 98.7867 68.6721 102.889 65.4126 107.023C66.3507 100.106 67.5909 93.3807 69.0855 86.9094C71.2161 89.4693 73.4421 92.0769 75.7476 94.7481ZM76.479 95.5908C81.9009 101.871 87.7521 108.422 93.8895 115.132C93.7782 117.056 93.6669 119.012 93.5715 120.967C87.9588 127.136 82.68 133.306 77.7828 139.411C72.7584 133.115 68.1315 126.882 63.9498 120.792C64.2519 116.881 64.6494 113.017 65.1264 109.217C68.688 104.622 72.4563 100.075 76.479 95.5908ZM93.492 157.887C88.1655 152.004 83.157 146.121 78.4824 140.286C83.157 134.45 88.1655 128.567 93.492 122.684C93.2535 128.456 93.1263 134.323 93.1263 140.286C93.1263 146.248 93.2535 152.115 93.492 157.887ZM77.7828 141.16C82.6959 147.282 87.9588 153.451 93.5715 159.604C93.6669 161.56 93.7623 163.5 93.8895 165.44C87.7521 172.149 81.9009 178.7 76.479 184.981C72.4563 180.497 68.688 175.949 65.1264 171.354C64.6494 167.554 64.2519 163.691 63.9498 159.779C68.1474 153.689 72.7743 147.457 77.7828 141.16ZM75.7476 185.823C73.4421 188.494 71.2161 191.118 69.0855 193.662C67.5909 187.191 66.3666 180.465 65.4126 173.548C68.6721 177.682 72.1065 181.785 75.7476 185.823ZM76.479 186.618C79.2138 189.639 82.044 192.629 84.9855 195.57C87.9111 198.496 90.9162 201.326 93.9372 204.076C87.6885 209.451 81.8691 214.284 76.5585 218.482C73.776 211.12 71.3751 203.25 69.4035 194.966C71.6454 192.279 73.9986 189.48 76.479 186.602V186.618ZM85.7646 194.791C82.8072 191.833 79.9611 188.812 77.2104 185.776C82.3143 179.861 87.9111 173.564 93.9849 166.934C94.7481 178.811 96.036 190.18 97.7373 200.785C96.7356 201.66 95.7498 202.518 94.7799 203.361C91.7271 200.594 88.722 197.748 85.7646 194.791ZM97.944 202.01C98.2143 203.663 98.5005 205.285 98.7867 206.907C97.7055 205.969 96.6243 205.046 95.559 204.076C96.354 203.393 97.149 202.709 97.944 202.01ZM98.6913 199.943C97.0059 189.242 95.7498 177.778 95.0184 165.789C95.718 165.026 96.4335 164.263 97.149 163.484C100.313 166.871 103.573 170.241 106.943 173.612C110.298 176.967 113.685 180.227 117.072 183.391C110.632 189.337 104.495 194.855 98.6913 199.943ZM126.532 213.839C126.882 218.879 127.264 223.745 127.677 228.403C123.877 226.034 120.109 223.49 116.372 220.819C119.711 218.625 123.114 216.304 126.532 213.839ZM126.357 191.833C130.714 195.649 135.055 199.307 139.363 202.773C135.357 205.969 131.382 209.006 127.454 211.868C127.041 205.555 126.659 198.877 126.357 191.833ZM126.294 190.307C126.103 185.903 125.944 181.371 125.801 176.713C130.603 172.197 135.436 167.57 140.254 162.88C145.072 167.57 149.905 172.197 154.707 176.713C154.564 181.371 154.405 185.903 154.214 190.291C149.539 194.425 144.881 198.352 140.238 202.073C135.611 198.368 130.952 194.425 126.294 190.307ZM154.15 191.833C153.848 198.861 153.467 205.555 153.053 211.868C149.126 209.006 145.135 205.969 141.128 202.773C145.453 199.307 149.794 195.649 154.15 191.833ZM153.976 213.839C157.394 216.288 160.765 218.609 164.104 220.787C160.367 223.459 156.599 225.971 152.831 228.34C153.244 223.697 153.626 218.863 153.976 213.839ZM163.452 183.391C166.839 180.227 170.225 176.967 173.58 173.612C176.935 170.257 180.211 166.871 183.375 163.484C184.09 164.247 184.806 165.026 185.505 165.789C184.774 177.778 183.518 189.242 181.832 199.943C176.029 194.87 169.891 189.337 163.452 183.391ZM182.58 201.994C183.375 202.693 184.17 203.377 184.949 204.061C183.883 205.015 182.802 205.953 181.721 206.891C182.007 205.285 182.293 203.647 182.564 202.01L182.58 201.994ZM182.786 200.769C184.504 190.148 185.776 178.796 186.539 166.902C192.613 173.533 198.209 179.829 203.313 185.744C200.563 188.781 197.716 191.802 194.759 194.759C191.802 197.716 188.781 200.563 185.744 203.329C184.774 202.486 183.788 201.628 182.786 200.769ZM195.554 195.554C198.496 192.613 201.31 189.623 204.061 186.602C206.541 189.48 208.894 192.279 211.136 194.966C209.164 203.25 206.764 211.12 203.981 218.482C198.67 214.268 192.851 209.451 186.602 204.061C189.623 201.326 192.613 198.496 195.554 195.554ZM204.776 185.807C208.401 181.769 211.852 177.667 215.111 173.533C214.173 180.449 212.933 187.175 211.438 193.646C209.308 191.086 207.082 188.479 204.776 185.807ZM204.045 184.965C198.623 178.684 192.772 172.133 186.634 165.424C186.745 163.5 186.857 161.544 186.952 159.588C192.565 153.419 197.844 147.25 202.741 141.144C207.765 147.441 212.392 153.673 216.574 159.763C216.272 163.675 215.874 167.538 215.397 171.338C211.836 175.934 208.067 180.481 204.045 184.949V184.965ZM203.44 140.27C208.226 134.26 212.678 128.297 216.717 122.462C217.13 128.297 217.353 134.228 217.353 140.27C217.353 146.312 217.146 152.242 216.717 158.078C212.678 152.242 208.226 146.28 203.44 140.27ZM217.576 161.226C218.434 162.498 219.293 163.77 220.12 165.026C219.007 166.568 217.878 168.095 216.717 169.621C217.051 166.855 217.337 164.04 217.576 161.21V161.226ZM217.576 119.314C217.337 116.483 217.051 113.685 216.717 110.918C217.878 112.445 219.007 113.971 220.12 115.513C219.293 116.77 218.45 118.042 217.576 119.314ZM216.463 108.756C215.445 100.838 214.046 93.174 212.329 85.8282C216.574 80.7243 220.438 75.9066 223.856 71.4228C228.276 76.3995 232.363 81.5193 236.083 86.7822C232.267 95.4 227.1 104.733 220.771 114.512C219.372 112.588 217.941 110.664 216.463 108.756ZM212.011 84.5244C210.039 76.3677 207.638 68.6244 204.871 61.3581C206.62 59.9748 208.306 58.671 209.944 57.4149C212.233 59.4819 214.507 61.5966 216.717 63.8067C218.927 66.0168 221.042 68.2905 223.109 70.5801C219.865 74.8413 216.16 79.5 212.011 84.5244ZM204.474 60.3087C202.9 56.2542 201.214 52.3587 199.418 48.6381C202.725 51.1821 205.953 53.8692 209.133 56.6994C207.622 57.8601 206.064 59.0526 204.474 60.3087ZM203.584 61.0083C198.05 65.3967 192.072 70.3734 185.823 75.7635C184.36 74.4597 182.898 73.1718 181.419 71.9157C180.163 65.2536 178.732 58.9095 177.142 52.9629C182.914 49.6398 188.479 46.8096 193.773 44.4564C195.029 45.3468 196.27 46.2531 197.526 47.1912C199.704 51.5478 201.723 56.1747 203.599 61.0083H203.584ZM194.95 43.9317C195.188 43.8363 195.427 43.725 195.665 43.6137C195.904 44.043 196.126 44.4882 196.365 44.9175C195.904 44.5836 195.427 44.2497 194.966 43.9158L194.95 43.9317ZM194.012 43.2798C187.636 38.796 181.085 34.821 174.407 31.3707C178.509 30.3054 182.516 29.4627 186.396 28.8744C189.528 33.1038 192.454 37.7466 195.188 42.771C194.807 42.93 194.393 43.1208 194.012 43.2957V43.2798ZM192.819 43.8045C187.715 46.0782 182.389 48.7971 176.856 51.9612C174.916 44.8539 172.753 38.3349 170.384 32.4837C170.734 32.3724 171.1 32.2611 171.45 32.1498C171.911 32.0226 172.372 31.9113 172.833 31.7841C179.638 35.2344 186.316 39.273 192.819 43.8045ZM171.148 31.0845C170.75 31.1958 170.368 31.3389 169.971 31.4502C169.796 31.005 169.605 30.5757 169.43 30.1305C170.066 30.4326 170.686 30.7188 171.322 31.0368C171.259 31.0527 171.211 31.0686 171.163 31.0845H171.148ZM169.462 32.7699C171.831 38.6688 174.01 45.2832 175.949 52.4859C172.404 54.5211 168.794 56.7471 165.121 59.1162C161.003 56.1747 156.869 53.3922 152.719 50.8323C152.354 46.8732 151.956 43.0572 151.543 39.4479C157.537 36.7926 163.516 34.5666 169.446 32.7699H169.462ZM151.432 38.2872C150.732 32.3088 149.953 26.8551 149.11 22.0692C155.47 24.0726 161.83 26.553 168.095 29.4945C168.413 30.2259 168.731 30.9732 169.049 31.7364C163.213 33.5013 157.33 35.6955 151.432 38.2872ZM151.591 50.1486C148.204 48.0816 144.817 46.1259 141.43 44.3292C144.467 42.7551 147.488 41.2764 150.525 39.909C150.891 43.1367 151.257 46.5711 151.591 50.1486ZM151.718 51.5001C152.179 56.4927 152.608 61.8192 152.99 67.4319C148.792 70.4529 144.547 73.6965 140.286 77.0991C136.024 73.6965 131.779 70.4688 127.582 67.4319C127.963 61.7874 128.392 56.4609 128.854 51.4524C132.638 49.1151 136.438 46.9527 140.254 44.9334C144.07 46.9527 147.902 49.131 151.734 51.4842L151.718 51.5001ZM128.981 50.085C129.315 46.5234 129.664 43.1367 130.046 39.9249C133.035 41.2764 136.04 42.7551 139.045 44.3133C135.675 46.11 132.336 48.0339 128.981 50.085ZM129.124 38.3508C123.161 35.7273 117.278 33.5331 111.491 31.7841C111.809 31.005 112.143 30.2418 112.461 29.4786C118.741 26.553 125.085 24.0567 131.445 22.0533C130.603 26.8551 129.823 32.3406 129.108 38.3508H129.124ZM128.997 39.4797C128.583 43.0731 128.202 46.8573 127.836 50.7846C123.654 53.3763 119.504 56.1588 115.402 59.1003C111.745 56.7312 108.152 54.5211 104.622 52.4859C106.562 45.2832 108.74 38.6847 111.109 32.7858C116.976 34.5507 122.955 36.7926 129.013 39.4797H128.997ZM110.569 31.5138C110.107 31.3707 109.63 31.2276 109.153 31.0845C109.805 30.7506 110.473 30.4485 111.141 30.1305C110.95 30.5757 110.759 31.0527 110.569 31.5138ZM110.155 32.4996C107.802 38.3508 105.64 44.8698 103.7 51.9612C98.1666 48.813 92.8401 46.0941 87.7362 43.8045C94.2234 39.273 100.901 35.2503 107.691 31.8C108.517 32.0226 109.328 32.2452 110.155 32.4996ZM86.5437 43.2798C86.1462 43.1049 85.7487 42.93 85.3671 42.7551C88.1019 37.7466 91.0275 33.1038 94.1439 28.8744C98.0394 29.4627 102.046 30.3054 106.117 31.3707C99.4545 34.821 92.9196 38.7801 86.5437 43.2639V43.2798ZM85.6056 43.9317C85.1445 44.2656 84.6675 44.5836 84.2064 44.9334C84.429 44.4882 84.6675 44.0589 84.906 43.6296C85.1445 43.725 85.383 43.8363 85.6215 43.9476L85.6056 43.9317ZM86.7981 44.4564C92.0928 46.8096 97.6578 49.6398 103.429 52.9629C101.839 58.8936 100.409 65.2218 99.1524 71.8839C97.6737 73.1559 96.195 74.4279 94.7481 75.7476C88.4994 70.3575 82.521 65.3967 76.9878 60.9924C78.8481 56.1588 80.8833 51.5478 83.0616 47.1753C84.3018 46.2372 85.5579 45.3309 86.814 44.4405L86.7981 44.4564ZM76.0974 60.3087C74.5074 59.0526 72.9492 57.8442 71.4387 56.6994C74.6187 53.8692 77.8464 51.1821 81.1536 48.6381C79.3569 52.3587 77.6715 56.2701 76.0974 60.3087ZM75.684 61.3581C72.9174 68.6244 70.5324 76.3677 68.5449 84.5244C64.395 79.5 60.6903 74.8413 57.4467 70.5801C59.5137 68.2905 61.6284 66.0168 63.8385 63.8226C66.0486 61.6125 68.3223 59.4978 70.6119 57.4308C72.2496 58.671 73.935 59.9907 75.684 61.374V61.3581ZM68.2428 85.8282C66.5097 93.174 65.1264 100.838 64.1088 108.756C62.6301 110.664 61.1991 112.588 59.8158 114.512C53.4717 104.733 48.3042 95.3841 44.4882 86.7504C48.2406 81.4716 52.3269 76.3518 56.7312 71.4069C60.1497 75.8907 64.0134 80.7243 68.2587 85.8282H68.2428ZM62.8527 120.999C62.3598 127.295 62.1054 133.735 62.1054 140.27C62.1054 146.805 62.3598 153.244 62.8527 159.541C61.8033 161.083 60.7857 162.609 59.784 164.12C54.1395 156.202 49.1946 148.22 44.9811 140.254C49.1946 132.304 54.1395 124.306 59.784 116.388C60.7698 117.898 61.8033 119.441 62.8527 120.967V120.999ZM59.7999 166.028C61.1991 167.952 62.6301 169.876 64.0929 171.784C65.1105 179.702 66.5097 187.366 68.2269 194.711C63.9816 199.815 60.1179 204.633 56.6994 209.117C52.2792 204.14 48.1929 199.02 44.4723 193.757C48.2883 185.14 53.4558 175.79 59.7999 166.028ZM68.5608 196.015C70.5324 204.172 72.9333 211.915 75.6999 219.181C73.9509 220.565 72.2655 221.869 70.6278 223.109C68.3382 221.042 66.0645 218.927 63.8544 216.717C61.6443 214.507 59.5296 212.233 57.4626 209.944C60.7062 205.682 64.4109 201.024 68.5608 195.999V196.015ZM76.0974 220.231C77.6715 224.285 79.3569 228.181 81.1536 231.901C77.8623 229.357 74.6187 226.67 71.4546 223.84C72.9651 222.695 74.5233 221.471 76.1133 220.215L76.0974 220.231ZM76.9878 219.531C82.521 215.143 88.4994 210.182 94.7481 204.792C96.2109 206.112 97.6737 207.384 99.1524 208.656C100.409 215.318 101.839 221.646 103.429 227.577C97.6578 230.9 92.0928 233.73 86.7981 236.083C85.542 235.193 84.2859 234.286 83.0457 233.348C80.8674 228.992 78.8322 224.365 76.9719 219.531H76.9878ZM85.6056 236.624C85.3671 236.719 85.1445 236.83 84.906 236.926C84.6675 236.497 84.4449 236.051 84.2223 235.622C84.6834 235.956 85.1445 236.29 85.6056 236.624ZM86.5437 237.292C92.9037 241.775 99.4386 245.734 106.101 249.169C102.046 250.218 98.0553 251.077 94.1598 251.665C91.0434 247.436 88.1019 242.793 85.383 237.785C85.7805 237.626 86.1621 237.466 86.5596 237.292H86.5437ZM87.7521 236.751C92.8401 234.477 98.1825 231.742 103.7 228.594C105.64 235.686 107.802 242.205 110.155 248.056C109.328 248.294 108.502 248.517 107.691 248.755C100.901 245.305 94.2393 241.283 87.7521 236.751ZM110.584 249.058C110.775 249.519 110.966 249.98 111.157 250.425C110.489 250.107 109.821 249.789 109.153 249.471C109.63 249.344 110.107 249.201 110.584 249.058ZM111.109 247.77C108.74 241.871 106.562 235.272 104.622 228.085C108.152 226.05 111.761 223.84 115.418 221.471C119.52 224.428 123.67 227.195 127.852 229.787C128.218 233.714 128.599 237.498 129.013 241.092C122.955 243.779 116.976 246.021 111.109 247.786V247.77ZM129.14 242.221C129.839 248.215 130.618 253.684 131.477 258.486C125.117 256.483 118.757 254.003 112.492 251.061C112.174 250.314 111.841 249.55 111.523 248.771C117.294 247.022 123.193 244.828 129.14 242.205V242.221ZM128.981 230.471C132.32 232.506 135.675 234.446 139.045 236.242C136.04 237.8 133.035 239.279 130.046 240.631C129.68 237.419 129.315 234.032 128.981 230.471ZM128.854 229.087C128.392 224.079 127.963 218.752 127.582 213.108C131.779 210.087 136.009 206.859 140.286 203.456C144.563 206.859 148.792 210.071 152.99 213.108C152.608 218.736 152.179 224.047 151.718 229.055C147.886 231.409 144.07 233.587 140.238 235.606C136.422 233.587 132.622 231.425 128.838 229.087H128.854ZM151.591 230.423C151.257 234 150.891 237.419 150.525 240.646C147.488 239.279 144.451 237.8 141.43 236.21C144.817 234.414 148.204 232.474 151.591 230.407V230.423ZM151.432 242.268C157.33 244.86 163.213 247.054 169.049 248.819C168.731 249.582 168.413 250.33 168.095 251.061C161.814 253.987 155.47 256.483 149.11 258.486C149.953 253.7 150.732 248.247 151.432 242.268ZM151.575 241.108C151.988 237.482 152.386 233.682 152.751 229.707C156.901 227.147 161.035 224.381 165.153 221.439C168.826 223.824 172.435 226.034 175.965 228.085C174.025 235.288 171.847 241.887 169.478 247.801C163.547 246.005 157.569 243.779 151.575 241.123V241.108ZM169.987 249.105C170.384 249.217 170.782 249.36 171.163 249.471C171.211 249.487 171.275 249.503 171.322 249.519C170.686 249.837 170.066 250.123 169.43 250.425C169.621 249.996 169.796 249.551 169.971 249.105H169.987ZM170.416 248.072C172.785 242.221 174.948 235.686 176.887 228.594C182.405 231.742 187.747 234.477 192.835 236.751C186.332 241.283 179.654 245.305 172.865 248.771C172.404 248.644 171.943 248.533 171.481 248.406C171.132 248.31 170.766 248.183 170.416 248.072ZM194.044 237.292C194.441 237.466 194.823 237.626 195.22 237.785C192.485 242.809 189.544 247.452 186.427 251.681C182.564 251.093 178.557 250.25 174.471 249.185C181.133 245.735 187.684 241.775 194.044 237.292ZM194.998 236.624C195.459 236.29 195.92 235.956 196.381 235.622C196.158 236.051 195.92 236.497 195.697 236.926C195.459 236.83 195.236 236.735 194.998 236.624ZM193.789 236.099C188.51 233.746 182.945 230.9 177.174 227.577C178.764 221.646 180.195 215.318 181.451 208.672C182.929 207.4 184.392 206.112 185.855 204.792C192.12 210.182 198.082 215.143 203.615 219.547C201.755 224.381 199.72 229.008 197.542 233.364C196.301 234.302 195.045 235.209 193.789 236.115V236.099ZM204.506 220.231C206.096 221.487 207.654 222.695 209.164 223.856C205.984 226.686 202.757 229.373 199.45 231.917C201.246 228.197 202.932 224.285 204.506 220.247V220.231ZM204.919 219.181C207.686 211.915 210.071 204.172 212.058 196.015C216.208 201.04 219.913 205.698 223.156 209.96C221.089 212.249 218.975 214.507 216.765 216.733C214.555 218.943 212.281 221.058 209.991 223.125C208.354 221.885 206.668 220.581 204.919 219.197V219.181ZM212.376 194.711C214.109 187.366 215.493 179.702 216.51 171.784C217.989 169.876 219.42 167.952 220.819 166.028C227.163 175.806 232.315 185.14 236.131 193.757C232.41 199.02 228.324 204.156 223.904 209.117C220.485 204.633 216.622 199.799 212.376 194.711ZM217.766 159.541C218.259 153.244 218.514 146.805 218.514 140.27C218.514 133.735 218.259 127.295 217.766 120.999C218.816 119.457 219.833 117.93 220.835 116.42C226.48 124.338 231.424 132.32 235.638 140.286C231.424 148.236 226.48 156.233 220.835 164.152C219.833 162.625 218.816 161.099 217.766 159.572V159.541ZM237.323 86.5278C237.848 85.3035 238.357 84.111 238.834 82.9185C240.106 86.5278 241.267 90.2325 242.3 94.0008C240.726 91.4886 239.056 88.9923 237.323 86.5278ZM236.671 85.5897C232.983 80.4222 228.944 75.3978 224.587 70.5165C226.607 67.8453 228.483 65.3013 230.152 62.9163C233.237 68.8311 235.972 75.0639 238.341 81.567C237.816 82.8867 237.26 84.2382 236.671 85.6056V85.5897ZM223.856 69.6738C221.821 67.416 219.738 65.19 217.56 63.0276C215.381 60.8493 213.155 58.7664 210.898 56.7312C214.92 53.6784 218.561 51.0867 221.805 48.9243C224.572 53.0265 227.163 57.3195 229.564 61.8192C227.863 64.2519 225.971 66.8754 223.84 69.6738H223.856ZM210.087 55.9998C206.271 52.5972 202.375 49.4013 198.384 46.4121C197.844 45.3309 197.287 44.2656 196.731 43.2162C202.725 40.7199 208.322 38.9073 213.426 37.8261C216.16 41.0538 218.752 44.4723 221.217 48.0339C217.846 50.2758 214.125 52.947 210.087 55.9998ZM196.254 42.3417C193.582 37.4286 190.705 32.8653 187.652 28.6836C193.392 27.8886 198.861 27.6342 204.029 27.8886C207.05 30.7347 209.944 33.7716 212.726 36.9834C207.654 38.0964 202.153 39.8931 196.27 42.3417H196.254ZM186.904 27.666C183.597 23.2617 180.099 19.3185 176.426 15.8682C181.451 16.0908 186.396 16.6314 191.229 17.5218C195.236 20.2884 199.1 23.3571 202.773 26.712C197.748 26.553 192.454 26.8551 186.904 27.6501V27.666ZM185.712 27.8727C181.61 28.5246 177.38 29.4309 173.04 30.6075C171.64 29.9079 170.225 29.2401 168.826 28.5882C166.759 23.8977 164.549 19.716 162.228 16.0908C166.457 15.7728 170.639 15.6933 174.773 15.8205C178.621 19.3026 182.278 23.3412 185.728 27.8886L185.712 27.8727ZM167.459 27.9363C161.337 25.1379 155.152 22.7529 148.935 20.829C148.744 19.8114 148.554 18.8415 148.363 17.8875C152.64 17.1084 156.901 16.5201 161.115 16.1703C163.341 19.5888 165.455 23.532 167.443 27.9363H167.459ZM131.747 20.829C125.546 22.7529 119.345 25.122 113.224 27.9363C115.211 23.532 117.326 19.5888 119.552 16.1703C123.781 16.5201 128.027 17.1084 132.304 17.8875C132.113 18.8415 131.922 19.8114 131.731 20.829H131.747ZM111.872 28.5723C110.425 29.2401 108.994 29.9238 107.563 30.6393C103.27 29.4786 99.0411 28.5723 94.923 27.9363C98.3892 23.3571 102.062 19.3026 105.926 15.8046C110.06 15.6774 114.241 15.7569 118.471 16.0749C116.149 19.7001 113.955 23.8818 111.872 28.5723ZM93.7305 27.7455C88.2132 26.9505 82.9026 26.6643 77.8146 26.8233C81.5352 23.4207 85.4307 20.3202 89.4693 17.5218C94.287 16.6314 99.2319 16.0908 104.272 15.8682C100.583 19.3344 97.0536 23.2935 93.7305 27.7296V27.7455ZM92.9991 28.7313C89.9622 32.8971 87.1002 37.4445 84.429 42.3417C78.546 39.8931 73.0287 38.0964 67.9725 36.9834C70.7232 33.7875 73.617 30.7665 76.6221 27.9363C81.8373 27.666 87.3228 27.9363 93.015 28.7154L92.9991 28.7313ZM83.952 43.2162C83.3955 44.2656 82.839 45.3309 82.2984 46.4121C78.3075 49.4013 74.3961 52.6131 70.5801 56.0157C66.5415 52.9629 62.8209 50.2917 59.4501 48.0498C61.9146 44.4723 64.5222 41.0697 67.2411 37.8261C72.345 38.9073 77.9418 40.7199 83.9361 43.2162H83.952ZM69.7533 56.7471C67.4955 58.7823 65.2695 60.8652 63.0912 63.0435C60.9129 65.2218 58.83 67.4478 56.7948 69.6897C54.6642 66.8754 52.7721 64.2678 51.0708 61.8351C53.4558 57.3354 56.0475 53.0265 58.83 48.9402C62.0736 51.1026 65.7147 53.7102 69.7374 56.7471H69.7533ZM56.0634 70.5165C51.7068 75.3978 47.6682 80.4222 43.9794 85.5897C43.3911 84.2223 42.8346 82.8867 42.3099 81.5511C44.6631 75.048 47.4138 68.8152 50.4984 62.9004C52.1679 65.2854 54.0441 67.8294 56.0634 70.5006V70.5165ZM43.3434 86.5278C41.6103 88.9923 39.9567 91.4886 38.3667 94.0008C39.4002 90.2325 40.5609 86.5278 41.8329 82.9185C42.3099 84.111 42.8187 85.3035 43.3434 86.5278ZM43.8522 87.6885C47.7159 96.3381 52.8675 105.671 59.1798 115.418C53.5671 123.257 48.6063 131.191 44.4087 139.077C40.1475 130.905 36.6654 122.78 34.026 114.862C34.8687 108.963 36.0135 103.191 37.4286 97.5624C39.432 94.2234 41.5785 90.9321 43.8522 87.6885ZM43.7886 140.27C39.7023 148.045 36.3474 155.788 33.708 163.341C32.7222 155.836 32.2134 148.124 32.2134 140.27C32.2134 132.415 32.7381 124.704 33.708 117.199C36.3474 124.767 39.7182 132.495 43.7886 140.27ZM33.2628 112.445C32.754 110.823 32.277 109.201 31.8318 107.595C32.9925 105.322 34.2168 103.064 35.5047 100.822C34.6302 104.638 33.8829 108.517 33.2628 112.461V112.445ZM32.8971 114.878C31.7205 123.114 31.1004 131.604 31.1004 140.27C31.1004 148.935 31.7205 157.426 32.8971 165.662C32.2611 167.586 31.6728 169.494 31.1322 171.402C26.0442 161.131 22.2123 150.621 19.6365 140.143C22.2441 129.569 26.0919 119.155 31.1004 109.058C31.641 110.982 32.2452 112.922 32.8812 114.862L32.8971 114.878ZM33.2628 168.095C33.867 171.974 34.6143 175.79 35.457 179.543C34.2009 177.333 32.9925 175.107 31.8477 172.865C32.277 171.291 32.754 169.701 33.2469 168.095H33.2628ZM34.026 165.678C36.6654 157.76 40.1475 149.635 44.4087 141.462C48.6222 149.349 53.5671 157.283 59.1798 165.122C52.8675 174.852 47.7159 184.186 43.8681 192.819C41.5785 189.544 39.4161 186.221 37.3968 182.85C35.9976 177.269 34.8687 171.529 34.026 165.678ZM43.3434 194.012C42.8187 195.236 42.3099 196.429 41.8329 197.621C40.5609 194.012 39.4002 190.307 38.3667 186.539C39.9408 189.051 41.6103 191.547 43.3434 194.012ZM43.9953 194.95C47.6841 200.117 51.7227 205.142 56.0793 210.023C54.06 212.694 52.1838 215.238 50.5143 217.623C47.4297 211.708 44.6949 205.476 42.3258 198.973C42.8505 197.653 43.407 196.301 43.9953 194.934V194.95ZM56.8107 210.866C58.8459 213.124 60.9288 215.35 63.1071 217.528C65.2854 219.706 67.4955 221.805 69.7533 223.824C65.7306 226.861 62.1054 229.453 58.8618 231.615C56.0793 227.513 53.5035 223.22 51.1026 218.72C52.8039 216.288 54.696 213.664 56.8266 210.866H56.8107ZM70.5642 224.556C74.3961 227.974 78.3075 231.186 82.3143 234.191C82.8549 235.256 83.3955 236.306 83.952 237.339C77.9577 239.836 72.3609 241.648 67.257 242.729C64.5222 239.502 61.9305 236.083 59.466 232.522C62.8209 230.296 66.5574 227.624 70.5801 224.572L70.5642 224.556ZM84.4131 238.198C87.0843 243.095 89.9463 247.643 92.9832 251.808C87.291 252.587 81.8055 252.858 76.5903 252.603C73.5852 249.773 70.7073 246.768 67.9566 243.572C73.0128 242.459 78.5301 240.646 84.3972 238.214L84.4131 238.198ZM80.4699 253.796C84.7311 253.796 89.1672 253.462 93.7146 252.81C97.0377 257.246 100.552 261.221 104.256 264.671C99.2319 264.449 94.287 263.908 89.4693 263.018C85.4307 260.235 81.5511 257.135 77.8305 253.748C78.705 253.78 79.5954 253.796 80.4858 253.796H80.4699ZM94.9071 252.619C99.0411 251.983 103.27 251.077 107.579 249.916C109.01 250.632 110.425 251.347 111.872 252.015C113.939 256.69 116.134 260.855 118.455 264.481C114.226 264.799 110.044 264.878 105.91 264.751C102.046 261.253 98.3733 257.198 94.9071 252.619ZM113.208 252.619C119.329 255.418 125.515 257.787 131.716 259.711C131.906 260.728 132.097 261.714 132.288 262.668C128.011 263.447 123.75 264.035 119.536 264.385C117.31 260.967 115.195 257.039 113.208 252.619ZM148.919 259.711C155.12 257.787 161.321 255.418 167.443 252.619C165.455 257.039 163.341 260.983 161.115 264.385C156.885 264.035 152.64 263.447 148.363 262.668C148.554 261.714 148.744 260.728 148.935 259.711H148.919ZM168.778 252.015C170.194 251.347 171.593 250.663 172.992 249.964C177.333 251.14 181.578 252.063 185.68 252.699C182.23 257.246 178.573 261.269 174.741 264.751C170.607 264.878 166.425 264.799 162.196 264.481C164.501 260.855 166.711 256.69 168.778 252.015ZM186.889 252.874C191.484 253.541 195.936 253.891 200.181 253.891C201.04 253.891 201.898 253.875 202.741 253.843C199.068 257.198 195.204 260.267 191.213 263.018C186.396 263.908 181.451 264.449 176.426 264.671C180.099 261.221 183.613 257.278 186.904 252.874H186.889ZM187.636 251.856C190.689 247.69 193.567 243.111 196.238 238.198C202.105 240.631 207.622 242.443 212.694 243.556C209.928 246.768 207.034 249.805 204.013 252.635C198.845 252.89 193.392 252.635 187.636 251.84V251.856ZM196.699 237.339C197.255 236.306 197.796 235.256 198.337 234.191C202.343 231.186 206.271 227.974 210.087 224.556C214.109 227.609 217.83 230.28 221.201 232.506C218.736 236.083 216.129 239.502 213.394 242.729C208.29 241.648 202.693 239.836 196.699 237.339ZM210.913 223.824C213.155 221.789 215.381 219.69 217.56 217.512C219.722 215.35 221.805 213.108 223.856 210.866C225.987 213.68 227.879 216.288 229.58 218.72C227.179 223.22 224.603 227.529 221.821 231.615C218.577 229.453 214.952 226.861 210.929 223.824H210.913ZM224.587 210.039C228.928 205.189 232.967 200.165 236.671 194.982C237.26 196.333 237.816 197.685 238.325 198.988C235.972 205.492 233.221 211.724 230.137 217.639C228.467 215.254 226.607 212.71 224.572 210.039H224.587ZM237.323 194.044C239.025 191.627 240.678 189.178 242.236 186.698C241.219 190.418 240.074 194.059 238.818 197.621C238.341 196.444 237.848 195.252 237.323 194.044ZM236.783 192.819C232.935 184.186 227.767 174.852 221.471 165.122C227.084 157.283 232.045 149.349 236.242 141.462C240.503 149.635 243.985 157.76 246.625 165.678C245.782 171.545 244.653 177.269 243.254 182.85C241.235 186.221 239.072 189.528 236.783 192.819ZM247.388 168.095C247.897 169.701 248.358 171.291 248.787 172.865C247.642 175.107 246.434 177.333 245.178 179.543C246.037 175.79 246.768 171.974 247.372 168.095H247.388ZM247.754 165.662C248.93 157.426 249.55 148.935 249.55 140.27C249.55 131.604 248.93 123.114 247.754 114.878C248.39 112.954 248.978 111.046 249.519 109.138C254.591 119.377 258.407 129.824 260.983 140.27C258.423 150.7 254.591 161.162 249.519 171.402C248.978 169.51 248.39 167.586 247.754 165.662ZM249.948 107.5C255.608 86.4801 255.163 67.2888 247.833 52.7721C264.369 76.0179 268.646 106.737 261.539 137.933C258.868 127.725 254.988 117.501 249.948 107.516V107.5ZM249.217 106.101C247.674 103.127 246.037 100.186 244.303 97.2603C242.936 91.8225 241.314 86.5119 239.454 81.3762C244.828 67.4796 246.418 55.7613 243.524 47.6364C253.732 62.1531 255.243 82.9503 249.217 106.101ZM240.185 43.6137C245.782 51.1185 244.971 63.9975 238.945 79.9929C236.592 73.6806 233.889 67.6386 230.868 61.8987C236.608 53.583 239.979 47.2071 240.185 43.6296V43.6137ZM238.802 42.0396C240.36 43.9953 237.323 50.5938 230.296 60.8175C227.958 56.4768 225.446 52.2951 222.743 48.3201C231.281 42.7233 236.799 40.4178 238.564 41.8011C238.643 41.8806 238.723 41.9601 238.802 42.0396ZM222.139 47.4456C219.77 43.9953 217.258 40.704 214.634 37.5717C224.142 35.7591 231.838 36.5859 236.989 40.4337C233.905 40.6086 228.785 43.1208 222.139 47.4456ZM213.934 36.7449C211.311 33.6603 208.56 30.7347 205.698 27.984C216.288 28.7631 225.526 31.8159 232.983 37.0947C227.911 35.2821 221.439 35.2344 213.919 36.7449H213.934ZM204.458 26.8233C201.071 23.6592 197.557 20.7495 193.9 18.0942C206.175 20.7018 217.591 25.5195 227.64 32.6268C220.899 29.2401 213.108 27.3003 204.458 26.8233ZM192.422 11.2731C192.628 11.3526 192.819 11.4321 193.026 11.5275C194.759 12.243 196.492 12.9903 198.193 13.7694C198.734 14.0238 199.291 14.2782 199.831 14.5326C201.199 15.1686 202.55 15.8523 203.886 16.536C204.728 16.9653 205.555 17.4105 206.382 17.8557C207.241 18.3168 208.099 18.8097 208.958 19.2867C213.314 21.7671 217.544 24.486 221.598 27.4116C212.424 22.1169 202.312 18.4917 191.627 16.5042C182.739 10.3986 173.119 5.8353 162.975 3.0846C172.992 4.7223 182.866 7.4412 192.406 11.2731H192.422ZM188.971 16.059C184.44 15.3276 179.829 14.8983 175.138 14.7393C168.699 8.9676 161.767 4.7541 154.468 2.3532C166.727 4.4202 178.35 9.1425 188.971 16.059ZM173.437 14.6598C169.51 14.5803 165.519 14.7075 161.512 15.0255C157.267 8.6496 152.656 4.1181 147.806 1.8126C156.901 3.4026 165.535 7.8387 173.437 14.6598ZM160.431 15.1368C156.361 15.5025 152.258 16.059 148.14 16.8222C146.518 9.0789 144.674 3.6729 142.623 1.3356C148.983 2.2737 154.993 7.1391 160.415 15.1368H160.431ZM140.158 1.1925C140.27 1.1925 140.397 1.1925 140.508 1.1925C142.734 1.4787 145.008 7.0119 147.075 17.013C144.833 17.4423 142.575 17.9352 140.317 18.4917C138.06 17.9352 135.818 17.4582 133.576 17.0289C135.643 7.0119 137.917 1.4787 140.143 1.2084L140.158 1.1925ZM138.028 1.3197C135.993 3.657 134.148 9.063 132.511 16.8063C128.392 16.0431 124.29 15.4866 120.22 15.1209C125.642 7.1232 131.668 2.2578 138.012 1.3197H138.028ZM132.844 1.7967C127.995 4.1022 123.384 8.6337 119.139 15.0096C115.132 14.6916 111.157 14.5644 107.214 14.6439C115.116 7.8387 123.75 3.3867 132.844 1.7967ZM126.182 2.3214C118.9 4.7223 111.952 8.9358 105.512 14.7075C100.822 14.8665 96.195 15.3117 91.6794 16.0272C102.301 9.1107 113.923 4.3884 126.182 2.3214ZM83.793 13.1334C84.7311 12.72 85.6692 12.3066 86.6232 11.9091C87.3705 11.5911 88.1178 11.289 88.881 10.9869C90.471 10.3509 92.061 9.7467 93.6669 9.1743C94.0008 9.0471 94.3347 8.9358 94.6845 8.8245C102.221 6.2169 109.933 4.3089 117.739 3.0369C107.579 5.7876 97.9281 10.3668 89.0082 16.4724C78.3234 18.4758 68.211 22.0851 59.0367 27.3798C66.7323 21.8307 75.0162 17.0289 83.7771 13.1334H83.793ZM86.7504 18.0783C83.0616 20.7495 79.5 23.7069 76.0974 26.8869C67.4955 27.3639 59.6409 29.3037 52.8198 32.7381C62.9163 25.5672 74.412 20.6859 86.7504 18.0624V18.0783ZM74.889 28.0317C72.0588 30.7665 69.324 33.6762 66.7164 36.729C59.2116 35.2185 52.7562 35.2662 47.7 37.0629C55.2525 31.7523 64.4904 28.7949 74.889 28.0158V28.0317ZM66.0168 37.5558C63.3933 40.6881 60.8811 43.9794 58.512 47.4297C51.8658 43.089 46.7301 40.5768 43.6614 40.4178C48.813 36.57 56.5245 35.7432 66.0168 37.5558ZM41.8488 42.0396C41.9283 41.9601 42.0078 41.8806 42.0873 41.8011C43.8522 40.4178 49.3695 42.7233 57.9078 48.3201C55.2207 52.2951 52.6926 56.4609 50.3553 60.8175C43.3275 50.6097 40.2906 44.0112 41.8488 42.0555V42.0396ZM49.7829 61.8828C46.7619 67.6227 44.0589 73.6806 41.7057 79.977C35.6796 63.9975 34.8687 51.1026 40.4655 43.5978C40.6722 47.1912 44.043 53.5671 49.7829 61.8669V61.8828ZM41.1969 81.3762C39.3366 86.5119 37.7148 91.8066 36.3474 97.2603C34.5984 100.186 32.9607 103.127 31.4343 106.101C25.4082 82.9662 26.9187 62.1531 37.1265 47.6364C34.2327 55.7613 35.8227 67.4796 41.1969 81.3762ZM30.687 107.484C25.6308 117.469 21.7671 127.693 19.08 137.901C11.9727 106.705 16.2657 75.9861 32.7858 52.7403C25.4559 67.2729 25.0107 86.4642 30.6711 107.468L30.687 107.484ZM16.2816 203.313C15.741 202.248 15.2004 201.167 14.6916 200.086C14.3577 199.386 14.0238 198.686 13.7058 197.987C12.9585 196.349 12.243 194.711 11.5752 193.074C11.4798 192.835 11.3844 192.613 11.289 192.374C-2.9733 156.901 -2.067 116.69 14.0397 81.8214C14.0874 81.726 14.1351 81.6147 14.1828 81.5193C15.0096 79.7385 15.9 77.9577 16.8063 76.2087C17.0448 75.7317 17.2992 75.2706 17.5536 74.7936C18.3009 73.4103 19.0641 72.027 19.8591 70.6596C20.3043 69.9123 20.7336 69.1491 21.1947 68.4018C21.8466 67.3206 22.5303 66.2394 23.214 65.1741C24.2952 63.4887 25.4241 61.8192 26.5848 60.1815C26.6802 60.0384 26.7915 59.8794 26.8869 59.7363C27.0777 59.466 27.2844 59.1957 27.4911 58.9254C14.1351 81.9963 11.4162 111.014 18.5394 140.254C11.4003 169.51 14.1351 198.512 27.4911 221.582C23.3094 215.811 19.557 209.705 16.2975 203.313H16.2816ZM16.6791 155.82C17.2356 151.352 18.0465 146.9 19.0482 142.48C21.7194 152.735 25.6149 163.007 30.687 173.04C25.0107 194.107 25.4718 213.33 32.8494 227.879C18.9687 208.481 13.2288 183.422 16.6791 155.836V155.82ZM31.4184 174.423C32.9607 177.396 34.5984 180.338 36.3315 183.263C37.6989 188.701 39.3207 194.012 41.181 199.148C35.8068 213.044 34.2168 224.762 37.1106 232.887C26.9028 218.371 25.3923 197.573 31.4184 174.439V174.423ZM40.4496 236.91C34.8528 229.405 35.6637 216.51 41.6898 200.531C44.043 206.843 46.746 212.885 49.767 218.625C44.0271 226.941 40.6563 233.317 40.4496 236.894V236.91ZM41.8329 238.468C40.2906 236.512 43.3116 229.914 50.3394 219.706C52.6767 224.047 55.1889 228.229 57.8919 232.204C49.3695 237.8 43.8522 240.106 42.0714 238.723C41.9919 238.643 41.9124 238.564 41.8329 238.484V238.468ZM58.4961 233.078C60.8652 236.528 63.3774 239.82 66.0009 242.952C56.5086 244.765 48.813 243.938 43.6455 240.106C46.7301 239.915 51.8499 237.419 58.4961 233.078ZM56.8584 244.876C59.8794 244.876 63.1707 244.494 66.7005 243.795C69.3081 246.863 72.0429 249.757 74.8731 252.492C64.4904 251.729 55.2525 248.771 47.7 243.461C50.3871 244.415 53.4558 244.876 56.8584 244.876ZM76.0815 253.637C79.4841 256.833 83.0457 259.774 86.7345 262.445C74.4438 259.838 62.9958 254.988 52.9311 247.865C59.7363 251.268 67.5432 253.16 76.0974 253.637H76.0815ZM94.6686 271.699C94.3188 271.572 93.9531 271.445 93.6033 271.318C92.0133 270.761 90.4392 270.157 88.8651 269.537C88.086 269.235 87.3228 268.917 86.5596 268.599C85.6692 268.233 84.7947 267.835 83.9202 267.454C75.0798 263.527 66.7323 258.709 58.9731 253.096C68.1633 258.407 78.2757 262.032 88.9764 264.035C97.8963 270.157 107.548 274.72 117.708 277.471C109.917 276.199 102.189 274.291 94.6686 271.699ZM91.6635 264.496C96.195 265.228 100.806 265.657 105.496 265.816C111.936 271.572 118.868 275.785 126.151 278.186C113.892 276.119 102.285 271.397 91.6635 264.496ZM107.15 265.848C107.897 265.848 108.629 265.896 109.376 265.896C112.588 265.896 115.831 265.753 119.091 265.498C123.336 271.874 127.947 276.406 132.797 278.711C123.686 277.121 115.052 272.669 107.134 265.848H107.15ZM120.204 265.403C124.274 265.037 128.377 264.481 132.479 263.717C134.101 271.445 135.945 276.851 137.98 279.188C131.636 278.25 125.61 273.385 120.188 265.403H120.204ZM140.476 279.315C140.365 279.315 140.238 279.315 140.127 279.315C137.901 279.045 135.627 273.512 133.56 263.527C135.802 263.097 138.044 262.604 140.302 262.048C142.559 262.604 144.801 263.097 147.043 263.527C144.976 273.512 142.702 279.045 140.476 279.315ZM142.591 279.188C144.626 276.867 146.471 271.445 148.093 263.717C152.211 264.481 156.297 265.037 160.367 265.403C154.945 273.385 148.935 278.25 142.575 279.188H142.591ZM147.775 278.711C152.624 276.406 157.235 271.874 161.48 265.498C164.74 265.753 167.983 265.896 171.195 265.896C171.943 265.896 172.69 265.864 173.421 265.848C165.519 272.669 156.869 277.121 147.759 278.711H147.775ZM154.437 278.186C161.719 275.785 168.651 271.572 175.091 265.816C179.781 265.657 184.392 265.212 188.924 264.496C178.303 271.397 166.696 276.119 154.437 278.186ZM208.672 261.396C207.908 261.825 207.161 262.255 206.398 262.668C205.555 263.129 204.697 263.574 203.838 264.02C202.502 264.703 201.183 265.355 199.831 265.991C199.275 266.261 198.702 266.516 198.146 266.786C196.444 267.565 194.743 268.312 193.026 269.012C192.803 269.108 192.597 269.187 192.374 269.282C182.85 273.114 172.976 275.817 162.959 277.455C173.103 274.704 182.723 270.141 191.611 264.035C202.312 262.032 212.44 258.407 221.63 253.096C217.48 256.101 213.155 258.868 208.672 261.412V261.396ZM193.869 262.445C197.526 259.79 201.04 256.88 204.41 253.732C213.028 253.255 220.787 251.331 227.497 247.992C217.48 255.052 206.08 259.854 193.869 262.445ZM205.682 252.54C208.528 249.789 211.279 246.879 213.903 243.795C217.417 244.494 220.724 244.876 223.745 244.876C227.179 244.876 230.264 244.399 232.967 243.429C225.494 248.708 216.272 251.761 205.682 252.54ZM223.538 243.89C220.787 243.89 217.798 243.556 214.618 242.952C217.242 239.82 219.738 236.528 222.107 233.094C228.737 237.419 233.857 239.931 236.942 240.122C233.523 242.666 228.992 243.906 223.538 243.906V243.89ZM238.77 238.484C238.691 238.564 238.611 238.643 238.532 238.723C236.767 240.122 231.25 237.816 222.711 232.204C225.398 228.229 227.926 224.047 230.264 219.706C237.292 229.93 240.328 236.528 238.77 238.484ZM230.836 218.641C233.857 212.901 236.56 206.843 238.913 200.547C244.939 216.526 245.75 229.421 240.154 236.926C239.947 233.332 236.576 226.957 230.836 218.657V218.641ZM239.422 199.148C241.267 194.06 242.872 188.797 244.24 183.406C245.989 180.481 247.658 177.524 249.217 174.534C255.211 197.637 253.684 218.402 243.493 232.887C246.386 224.762 244.796 213.044 239.422 199.148ZM249.948 173.119C254.956 163.261 258.852 153.085 261.555 142.75C268.615 173.898 264.322 204.569 247.817 227.783C255.147 213.267 255.592 194.107 249.948 173.119ZM269.314 192.422C269.235 192.613 269.155 192.803 269.076 193.01C268.392 194.695 267.645 196.381 266.897 198.035C266.595 198.702 266.277 199.37 265.959 200.038C265.403 201.214 264.814 202.391 264.21 203.568C260.967 209.88 257.262 215.906 253.128 221.614C266.468 198.575 269.203 169.621 262.111 140.413C263.368 135.245 264.369 130.046 265.021 124.847C268.106 100.202 263.924 77.5443 253.207 59.0526C253.366 59.2752 253.541 59.4978 253.7 59.7204C253.955 60.0702 254.193 60.4359 254.448 60.7857C255.449 62.2167 256.435 63.6636 257.373 65.1423C258.073 66.2394 258.772 67.3524 259.44 68.4654C259.87 69.1809 260.299 69.8964 260.712 70.6278C261.523 72.027 262.318 73.4421 263.065 74.8572C263.304 75.2865 263.527 75.7317 263.765 76.161C264.687 77.9577 265.594 79.7544 266.436 81.567C266.468 81.6306 266.5 81.6942 266.532 81.7578C282.67 116.658 283.576 156.901 269.282 192.406L269.314 192.422Z" fill="black"/>
</svg>
