<svg width="150" height="49" viewBox="0 0 150 49" fill="none" xmlns="http://www.w3.org/2000/svg">
<path d="M43.1692 18.3182H31.8056C31.6541 17.1515 31.3435 16.0985 30.8738 15.1591C30.4041 14.2197 29.7828 13.4167 29.0101 12.75C28.2374 12.0833 27.3207 11.5758 26.2601 11.2273C25.2147 10.8636 24.0556 10.6818 22.7828 10.6818C20.5253 10.6818 18.5783 11.2348 16.9419 12.3409C15.3207 13.447 14.0707 15.0455 13.1919 17.1364C12.3283 19.2273 11.8965 21.7576 11.8965 24.7273C11.8965 27.8182 12.3359 30.4091 13.2147 32.5C14.1086 34.5758 15.3586 36.1439 16.9647 37.2045C18.5859 38.25 20.5025 38.7727 22.7147 38.7727C23.9571 38.7727 25.0859 38.6136 26.101 38.2955C27.1313 37.9773 28.0328 37.5152 28.8056 36.9091C29.5935 36.2879 30.2374 35.5379 30.7374 34.6591C31.2525 33.7652 31.6086 32.7576 31.8056 31.6364L43.1692 31.7045C42.9722 33.7652 42.3738 35.7955 41.3738 37.7955C40.3889 39.7955 39.0328 41.6212 37.3056 43.2727C35.5783 44.9091 33.4722 46.2121 30.9874 47.1818C28.5177 48.1515 25.6844 48.6364 22.4874 48.6364C18.2753 48.6364 14.5025 47.7121 11.1692 45.8636C7.85103 44 5.22982 41.2879 3.30558 37.7273C1.38133 34.1667 0.419212 29.8333 0.419212 24.7273C0.419212 19.6061 1.39648 15.2652 3.35103 11.7045C5.30558 8.14394 7.94952 5.43939 11.2828 3.59091C14.6162 1.74242 18.351 0.81818 22.4874 0.81818C25.3056 0.81818 27.9116 1.21212 30.3056 2C32.6995 2.77273 34.8056 3.90909 36.6238 5.40909C38.4419 6.89394 39.9192 8.7197 41.0556 10.8864C42.1919 13.053 42.8965 15.5303 43.1692 18.3182ZM58.4874 48H46.3965L62.101 1.45454H77.0783L92.7828 48H80.6919L69.7601 13.1818H69.3965L58.4874 48ZM56.8738 29.6818H82.1465V38.2273H56.8738V29.6818ZM121.516 15.4091C121.364 13.7424 120.69 12.447 119.493 11.5227C118.311 10.5833 116.622 10.1136 114.425 10.1136C112.97 10.1136 111.758 10.303 110.789 10.6818C109.819 11.0606 109.092 11.5833 108.607 12.25C108.122 12.9015 107.872 13.6515 107.857 14.5C107.826 15.197 107.963 15.8106 108.266 16.3409C108.584 16.8712 109.039 17.3409 109.629 17.75C110.236 18.1439 110.963 18.4924 111.811 18.7955C112.66 19.0985 113.614 19.3636 114.675 19.5909L118.675 20.5C120.978 21 123.008 21.6667 124.766 22.5C126.539 23.3333 128.023 24.3258 129.22 25.4773C130.432 26.6288 131.349 27.9545 131.97 29.4545C132.592 30.9545 132.91 32.6364 132.925 34.5C132.91 37.4394 132.167 39.9621 130.698 42.0682C129.228 44.1742 127.114 45.7879 124.357 46.9091C121.614 48.0303 118.304 48.5909 114.425 48.5909C110.531 48.5909 107.137 48.0076 104.243 46.8409C101.349 45.6742 99.0991 43.9015 97.4931 41.5227C95.887 39.1439 95.0613 36.1364 95.0158 32.5H105.789C105.879 34 106.281 35.25 106.993 36.25C107.705 37.25 108.682 38.0076 109.925 38.5227C111.182 39.0379 112.637 39.2955 114.289 39.2955C115.804 39.2955 117.092 39.0909 118.152 38.6818C119.228 38.2727 120.054 37.7045 120.629 36.9773C121.205 36.25 121.501 35.4167 121.516 34.4773C121.501 33.5985 121.228 32.8485 120.698 32.2273C120.167 31.5909 119.349 31.0455 118.243 30.5909C117.152 30.1212 115.758 29.6894 114.061 29.2955L109.198 28.1591C105.167 27.2348 101.993 25.7424 99.6749 23.6818C97.3567 21.6061 96.2052 18.803 96.2203 15.2727C96.2052 12.3939 96.9779 9.87121 98.5385 7.70454C100.099 5.53788 102.258 3.84848 105.016 2.63636C107.773 1.42424 110.917 0.81818 114.448 0.81818C118.054 0.81818 121.182 1.43182 123.834 2.65909C126.501 3.87121 128.569 5.57576 130.039 7.77273C131.508 9.9697 132.258 12.5151 132.289 15.4091H121.516ZM149.857 1.45454V48H138.607V1.45454H149.857Z" fill="black"/>
</svg>
