<svg width="134" height="74" viewBox="0 0 134 74" fill="none" xmlns="http://www.w3.org/2000/svg">
<path fill-rule="evenodd" clip-rule="evenodd" d="M10.3046 0V21.6215C13.6218 17.6992 17.5958 15.7228 22.208 15.7228C24.4181 15.689 26.6077 16.1479 28.6154 17.0657C30.5261 17.9509 31.9582 19.0868 32.9115 20.4734C33.8813 21.8594 34.5558 23.4272 34.8939 25.0809C35.2498 26.7558 35.4268 29.3615 35.4247 32.8981V56.0179H25.1324V35.1943C25.1324 31.0649 24.9452 28.4459 24.5524 27.3375C24.183 26.2477 23.453 25.3139 22.4811 24.6881C21.371 23.9917 20.0742 23.6455 18.7619 23.6953C17.147 23.6714 15.5594 24.1102 14.1895 24.9591C12.7957 25.8568 11.7538 27.2014 11.2375 28.7687C10.6237 30.4619 10.2923 32.9651 10.3169 36.2753V56.0148H0V0H10.3046Z" fill="black"/>
<path fill-rule="evenodd" clip-rule="evenodd" d="M50.8816 0V21.6215C54.1958 17.6992 58.1728 15.7228 62.7819 15.7228C64.9925 15.6911 67.1825 16.1488 69.1924 17.0627C71.095 17.9478 72.527 19.0837 73.4885 20.4704C74.4583 21.8563 75.1329 23.4242 75.4709 25.0779C75.8228 26.7528 75.9997 29.3585 76.0018 32.8951V56.0148H65.7156V35.1943C65.7156 31.0649 65.5202 28.4459 65.1295 27.3375C64.7601 26.2477 64.0301 25.3139 63.0581 24.6881C62.0762 24.0242 60.8303 23.6953 59.3389 23.6953C57.724 23.671 56.1363 24.1099 54.7666 24.9591C53.3768 25.8619 52.3354 27.2045 51.8114 28.7687C51.1977 30.4619 50.8908 32.9641 50.8908 36.2753V56.0148H40.5862V0H50.8816Z" fill="black"/>
<path fill-rule="evenodd" clip-rule="evenodd" d="M0.0306877 73.376V62.081H1.40545V66.7251H6.78176L6.76949 62.081H8.14425V73.376H6.76949V68.0498H1.40545V73.376H0.0306877Z" fill="black"/>
<path fill-rule="evenodd" clip-rule="evenodd" d="M15.3188 70.7388L16.6322 70.9154C16.4791 71.6729 16.0751 72.3579 15.4845 72.8613C14.8777 73.3454 14.1143 73.5942 13.3364 73.5617C12.8452 73.5834 12.3554 73.495 11.9033 73.3031C11.4512 73.1112 11.0485 72.8207 10.725 72.4532C10.0867 71.7224 9.76451 70.6809 9.76451 69.3562C9.76451 67.9828 10.0714 66.92 10.7342 66.1526C11.0419 65.7843 11.43 65.4903 11.8692 65.293C12.3084 65.0957 12.787 65.0001 13.2689 65.0136C13.7362 65.0006 14.2002 65.0938 14.6257 65.2859C15.0512 65.478 15.4268 65.764 15.7239 66.1221C16.3622 66.8743 16.6844 67.9158 16.6844 69.2679C16.6844 69.3471 16.6844 69.4719 16.6844 69.6394H11.0779C11.0756 70.3848 11.3204 71.1103 11.7745 71.7041C11.9661 71.9323 12.2065 72.1152 12.4783 72.2395C12.7501 72.3638 13.0464 72.4264 13.3457 72.4228C13.7806 72.4314 14.2046 72.2868 14.5424 72.0147C14.9187 71.6717 15.1881 71.2289 15.3188 70.7388ZM11.1485 68.5005H15.3372C15.3255 67.9493 15.1586 67.4124 14.8554 66.9504C14.6832 66.7174 14.4609 66.5251 14.2048 66.3875C13.9486 66.2499 13.6649 66.1703 13.3741 66.1546C13.0833 66.1389 12.7925 66.1874 12.5228 66.2965C12.2531 66.4057 12.0112 66.5729 11.8144 66.786C11.3967 67.2623 11.161 67.8692 11.1485 68.5005Z" fill="black"/>
<path fill-rule="evenodd" clip-rule="evenodd" d="M23.0396 72.3649C22.6505 72.7513 22.1914 73.0613 21.6863 73.2785C21.2458 73.4637 20.7714 73.5559 20.2931 73.5495C19.947 73.5725 19.5998 73.5258 19.2723 73.4122C18.9448 73.2986 18.6439 73.1206 18.3875 72.8887C18.1694 72.666 17.9981 72.4023 17.8838 72.1132C17.7695 71.824 17.7143 71.5152 17.7216 71.2047C17.7181 70.8254 17.8054 70.4507 17.9763 70.1114C18.1306 69.799 18.3553 69.526 18.633 69.3136C18.9086 69.1059 19.2208 68.951 19.5536 68.8568C19.9239 68.7588 20.3015 68.6905 20.6828 68.6527C21.454 68.5767 22.2139 68.4132 22.9475 68.1655C22.9475 67.9797 22.9475 67.861 22.9475 67.8061C22.9901 67.3783 22.8599 66.9512 22.5854 66.6185C22.1856 66.28 21.6674 66.1115 21.1431 66.1495C20.6759 66.1092 20.2089 66.2297 19.8205 66.4906C19.4782 66.8144 19.2564 67.2438 19.1915 67.7087L17.9456 67.526C18.024 67.0226 18.2148 66.5429 18.5041 66.1221C18.7872 65.7427 19.1768 65.4545 19.6242 65.2938C20.1681 65.0994 20.7431 65.0045 21.3211 65.0136C21.8518 64.9933 22.3813 65.0761 22.88 65.2572C23.2235 65.3796 23.5283 65.5897 23.7638 65.8663C23.9668 66.1498 24.1012 66.476 24.1566 66.8195C24.2119 67.2425 24.2355 67.669 24.2272 68.0955V69.947C24.2052 70.7598 24.2308 71.5733 24.3039 72.3832C24.359 72.7261 24.4688 73.0582 24.6292 73.3668H23.3035C23.1614 73.0448 23.0713 72.7026 23.0365 72.3527M22.9383 69.2557C22.2729 69.5135 21.5784 69.6904 20.87 69.7825C20.4851 69.8224 20.1079 69.9167 19.75 70.0627C19.5432 70.1588 19.3716 70.3163 19.259 70.5134C19.1093 70.7609 19.0482 71.0513 19.0855 71.3376C19.1228 71.6239 19.2564 71.8893 19.4646 72.0909C19.6175 72.2226 19.7953 72.323 19.9875 72.3862C20.1797 72.4495 20.3827 72.4743 20.5847 72.4593C21.0463 72.4724 21.502 72.3541 21.898 72.1183C22.2686 71.8853 22.5595 71.5467 22.7327 71.1468C22.8921 70.7028 22.9619 70.232 22.9383 69.7612V69.2557Z" fill="black"/>
<path fill-rule="evenodd" clip-rule="evenodd" d="M30.9782 73.379V72.3467C30.7811 72.7246 30.4803 73.0395 30.1105 73.255C29.7407 73.4706 29.3171 73.5779 28.8885 73.5648C28.2934 73.57 27.7135 73.3782 27.2406 73.0197C26.7193 72.6395 26.318 72.1198 26.0837 71.5214C25.7906 70.8151 25.6495 70.0558 25.6694 69.2922C25.6588 68.5357 25.7824 67.7832 26.0346 67.0692C26.251 66.462 26.644 65.9321 27.1639 65.5465C27.6513 65.198 28.2387 65.0144 28.8394 65.0228C29.26 65.0121 29.6754 65.1176 30.0392 65.3273C30.3866 65.5305 30.6818 65.8109 30.9015 66.1465V62.081H32.1566V73.379H30.9782ZM26.9736 69.2892C26.9736 70.3398 27.1731 71.1164 27.5874 71.6432C27.7468 71.8766 27.96 72.069 28.2091 72.2045C28.4583 72.3401 28.7364 72.4149 29.0204 72.4228C29.2982 72.4204 29.5714 72.352 29.817 72.2233C30.0626 72.0945 30.2735 71.9092 30.432 71.6828C30.8248 71.1773 31.0212 70.4281 31.0212 69.4049C31.0212 68.2843 30.8156 67.4681 30.4228 66.9413C30.2611 66.703 30.0433 66.5075 29.7882 66.3716C29.5331 66.2358 29.2485 66.1637 28.9591 66.1617C28.6803 66.1643 28.4064 66.2338 28.1606 66.3642C27.9148 66.4947 27.7044 66.6822 27.5475 66.9108C27.1516 67.4164 26.9644 68.2081 26.9736 69.2892Z" fill="black"/>
<path fill-rule="evenodd" clip-rule="evenodd" d="M34.2955 73.376V62.081H35.661V66.7251H41.0373V62.081H42.4121V73.376H41.0373V68.0498H35.661V73.376H34.2955Z" fill="black"/>
<path fill-rule="evenodd" clip-rule="evenodd" d="M49.3688 73.379V72.1609C49.0261 72.7738 48.4597 73.2332 47.7862 73.4445C47.1127 73.6557 46.3832 73.6029 45.7477 73.2968C45.4057 73.147 45.111 72.9081 44.8947 72.6055C44.697 72.2902 44.5636 71.9394 44.5019 71.5732C44.4413 71.1435 44.4156 70.7096 44.4252 70.2759V65.1963H45.6987V69.7368C45.6869 70.2243 45.7126 70.7119 45.7754 71.1955C45.8322 71.5348 46.0127 71.8414 46.2827 72.0571C46.5526 72.2727 46.893 72.3823 47.2391 72.3649C47.6234 72.3656 47.9993 72.2532 48.3193 72.0421C48.6423 71.8368 48.8899 71.5335 49.0251 71.1773C49.1839 70.6597 49.2535 70.1191 49.2307 69.5785V65.1963H50.4981V73.379H49.3688Z" fill="black"/>
<path fill-rule="evenodd" clip-rule="evenodd" d="M52.4221 73.379V65.1963H53.5575V66.3566C53.7949 65.9365 54.1439 65.5891 54.5665 65.3523C54.9891 65.1155 55.4691 64.9984 55.9541 65.0136C56.3778 65.0098 56.797 65.0993 57.1816 65.2755C57.5255 65.4222 57.8211 65.6617 58.0347 65.9668C58.2319 66.2823 58.3654 66.633 58.4275 66.9992C58.4903 67.4439 58.516 67.8931 58.5042 68.3421V73.379H57.2307V68.4C57.249 67.9736 57.1993 67.5471 57.0834 67.1362C56.9887 66.8611 56.8053 66.6246 56.5617 66.4632C56.2953 66.2943 55.9849 66.2064 55.6688 66.2104C55.4087 66.2069 55.1506 66.2552 54.9097 66.3525C54.6688 66.4498 54.45 66.5941 54.2664 66.7768C53.8736 67.1453 53.6772 67.8549 53.6864 68.9085V73.379H52.4221Z" fill="black"/>
<path fill-rule="evenodd" clip-rule="evenodd" d="M63.1563 72.1304L63.3435 73.3486C63.0288 73.43 62.7052 73.473 62.3799 73.4764C62.0069 73.498 61.6353 73.4135 61.309 73.2328C61.0657 73.0889 60.877 72.8695 60.772 72.6085C60.6434 72.0734 60.5938 71.5225 60.6247 70.9732V66.2683H59.6795V65.1963H60.6216V63.1712L61.889 62.3338V65.1963H63.1655V66.2683H61.889V71.0615C61.8728 71.3164 61.8966 71.5722 61.9595 71.8198C62.0007 71.9303 62.0758 72.0252 62.1743 72.0909C62.3103 72.1617 62.4628 72.1953 62.6162 72.1883C62.7976 72.1837 62.9782 72.1644 63.1563 72.1304Z" fill="black"/>
<path fill-rule="evenodd" clip-rule="evenodd" d="M69.4655 70.7387L70.7697 70.9154C70.6143 71.6746 70.2109 72.3618 69.622 72.8704C68.9143 73.384 68.0426 73.6249 67.1693 73.5481C66.296 73.4714 65.4805 73.0823 64.8748 72.4532C64.2242 71.7224 63.902 70.6809 63.902 69.3562C63.902 67.9828 64.2365 66.92 64.884 66.1526C65.189 65.7843 65.5749 65.4903 66.0121 65.2929C66.4494 65.0955 66.9263 64.9999 67.4064 65.0136C67.8734 65.0024 68.3369 65.0964 68.7621 65.2884C69.1872 65.4803 69.5631 65.7654 69.8614 66.1221C70.4904 66.8743 70.8127 67.9158 70.8127 69.2679C70.8127 69.347 70.8127 69.4719 70.8127 69.6394H65.2031C65.2009 70.3848 65.4456 71.1103 65.8997 71.7041C66.0913 71.9323 66.3317 72.1152 66.6035 72.2395C66.8753 72.3638 67.1716 72.4264 67.4709 72.4228C67.9059 72.4314 68.3298 72.2868 68.6677 72.0147C69.0436 71.6699 69.3156 71.2281 69.4532 70.7387M65.2829 68.5005H69.4624C69.4508 67.9493 69.2839 67.4124 68.9807 66.9504C68.8056 66.6997 68.5708 66.4957 68.2973 66.3566C68.0238 66.2174 67.7199 66.1473 67.4126 66.1526C67.1353 66.1448 66.8597 66.1975 66.6052 66.307C66.3507 66.4164 66.1235 66.5799 65.9396 66.786C65.5255 67.2628 65.2969 67.871 65.2952 68.5005H65.2829Z" fill="black"/>
<path fill-rule="evenodd" clip-rule="evenodd" d="M72.2826 73.379V65.1963H73.4302V66.4358C73.6082 65.9973 73.8829 65.6039 74.2342 65.2847C74.4644 65.108 74.7473 65.0127 75.0382 65.0136C75.5131 65.0241 75.9731 65.1805 76.3547 65.4613L75.9128 66.7464C75.6436 66.5556 75.3229 66.4496 74.9922 66.4419C74.7189 66.4407 74.4544 66.5369 74.2465 66.7129C74.014 66.912 73.8499 67.1781 73.777 67.4742C73.6291 68.0004 73.5588 68.5451 73.5683 69.0913V73.376L72.2826 73.379Z" fill="black"/>
<path fill-rule="evenodd" clip-rule="evenodd" d="M89.1695 41.2818C89.1682 37.2782 90.3634 33.3641 92.6039 30.0346C94.8443 26.7051 98.0293 24.1097 101.756 22.5766C105.483 21.0435 109.584 20.6416 113.541 21.4217C117.498 22.2018 121.133 24.1289 123.987 26.9592C126.84 29.7896 128.784 33.3961 129.572 37.3226C130.359 41.2491 129.956 45.3193 128.413 49.0184C126.87 52.7176 124.256 55.8795 120.902 58.1044C117.548 60.3292 113.604 61.517 109.57 61.5177C104.162 61.5152 98.9756 59.3828 95.1506 55.5886C91.3255 51.7944 89.1743 46.6488 89.1695 41.2818Z" fill="white"/>
<path fill-rule="evenodd" clip-rule="evenodd" d="M133.695 40.4529C133.695 45.3219 132.24 50.0815 129.514 54.1299C126.789 58.1783 122.914 61.3337 118.381 63.197C113.848 65.0603 108.861 65.5478 104.048 64.5979C99.2363 63.648 94.8161 61.3034 91.3468 57.8605C87.8774 54.4176 85.5148 50.0311 84.5576 45.2556C83.6004 40.4802 84.0917 35.5303 85.9693 31.032C87.8469 26.5336 91.0264 22.6888 95.106 19.9838C99.1855 17.2787 103.982 15.8349 108.888 15.8349C112.146 15.8341 115.372 16.4703 118.382 17.7072C121.392 18.9441 124.127 20.7574 126.431 23.0435C128.735 25.3297 130.562 28.0439 131.809 31.031C133.055 34.0182 133.696 37.2198 133.695 40.4529Z" fill="#CA2721"/>
<path d="M98.8109 29.5404V39.2686C98.8109 39.8557 98.7874 40.4427 98.7405 41.0298C98.6935 41.6168 98.6419 42.2039 98.5856 42.7909H98.6419C98.933 42.3809 99.2288 41.9756 99.5292 41.5749C99.8391 41.1742 100.168 40.7875 100.515 40.4148L104.924 35.6625H109.769L103.515 42.4415L110.149 51.2891H105.191L100.656 44.9574L98.8109 46.425V51.2891H94.5151V29.5404H98.8109Z" fill="white"/>
<path d="M123.054 51.2891H110.617V48.7732L117.913 38.9192H111.054V35.6625H122.8V38.43L115.701 48.0324H123.054V51.2891Z" fill="white"/>
</svg>
