<svg width="74" height="74" viewBox="0 0 74 74" fill="none" xmlns="http://www.w3.org/2000/svg">
<g clip-path="url(#clip0_20_553)">
<path d="M58.2444 0H15.3275C6.86365 0 0 6.86365 0 15.3275V58.2444C0 66.7083 6.86365 73.5719 15.3275 73.5719H58.2444C66.7113 73.5719 73.5719 66.7083 73.5719 58.2444V15.3275C73.5719 6.86365 66.7113 0 58.2444 0ZM24.524 58.2444H15.3275V24.524H24.524V58.2444ZM19.9257 20.6369C16.9645 20.6369 14.5611 18.2152 14.5611 15.2294C14.5611 12.2436 16.9645 9.82185 19.9257 9.82185C22.887 9.82185 25.2903 12.2436 25.2903 15.2294C25.2903 18.2152 22.8901 20.6369 19.9257 20.6369ZM61.3099 58.2444H52.1134V41.0654C52.1134 30.7408 39.8515 31.5225 39.8515 41.0654V58.2444H30.655V24.524H39.8515V29.9346C44.1309 22.0072 61.3099 21.4217 61.3099 37.5247V58.2444Z" fill="#0B66C2"/>
</g>
<defs>
<clipPath id="clip0_20_553">
<rect width="73.5719" height="73.5719" fill="white"/>
</clipPath>
</defs>
</svg>
