<svg width="227" height="72" viewBox="0 0 227 72" fill="none" xmlns="http://www.w3.org/2000/svg">
<path fill-rule="evenodd" clip-rule="evenodd" d="M34.2226 0.0669886C33.9792 0.10112 33.0927 0.220092 32.2234 0.322112C31.3715 0.424148 29.7548 0.730224 28.6597 1.00228C20.767 2.88982 13.9523 6.90297 8.89334 12.6336C4.00825 18.1604 1.17459 24.452 0.235852 31.7641C-0.824649 40.2496 1.73087 49.4664 7.10272 56.4553C13.2742 64.4815 22.1231 69.5149 32.5711 70.9775C35.0919 71.3175 40.0292 71.3685 42.3935 71.0623C49.2603 70.1782 55.5188 67.7635 60.7169 64.0055C62.1945 62.9341 64.6457 60.8766 64.6457 60.7064C64.6457 60.5875 55.6926 52.1361 54.3541 50.9967L53.7284 50.4526L52.1811 51.6599C48.0609 54.8908 43.6451 56.5062 38.395 56.7103C34.188 56.8634 30.8675 56.1662 27.182 54.3806C17.2031 49.5514 12.4571 38.7701 15.8818 28.7542C17.742 23.3467 21.5144 19.0444 26.7473 16.3917C30.2242 14.6402 33.475 13.875 37.5257 13.8921C43.6798 13.8921 48.6344 15.7795 53.3631 19.8947L55.032 21.3572L60.2301 16.4257C63.0812 13.7049 65.4454 11.4262 65.4802 11.3582C65.5497 11.1712 62.577 8.60353 60.7515 7.29414C55.7796 3.70603 50.286 1.44439 43.9582 0.373063C42.3935 0.117941 35.3005 -0.120119 34.2226 0.0669886ZM41.3156 4.57332C45.1924 4.98142 49.1734 6.08677 52.5634 7.68516C54.3887 8.55246 58.5785 11.1372 58.8393 11.5623C58.9088 11.6814 58.1438 12.5316 56.9444 13.6879L54.9278 15.6265L53.8673 14.8612C48.6692 11.1032 41.5764 9.21568 35.0919 9.82783C33.8924 9.92986 32.8493 10.0319 32.7624 10.0488C32.5711 10.083 31.2326 5.42353 31.3369 5.1344C31.4063 4.96435 32.3625 4.79431 34.8311 4.5053C36.0133 4.3522 39.7335 4.40327 41.3156 4.57332ZM27.6513 8.56951C28.0163 9.92986 28.2772 11.1203 28.2249 11.1883C28.1729 11.2733 27.8426 11.4264 27.4775 11.5453C27.1298 11.6474 26.0171 12.1575 25.0089 12.6507C17.5336 16.3577 12.5441 22.6325 10.9447 30.3529C10.7362 31.2881 10.5797 32.3083 10.5797 32.5974V33.1246H7.71123C5.71201 33.1246 4.8428 33.0736 4.8428 32.9376C4.8428 32.1722 5.46863 28.9075 5.90316 27.3938C8.19799 19.4187 13.8132 12.6167 21.6189 8.3824C22.6271 7.83827 26.6256 6.10384 26.9211 6.08677C26.9733 6.08677 27.3034 7.20905 27.6513 8.56951ZM10.6318 38.5322C10.9447 41.3721 12.2833 45.198 13.8653 47.8508C16.8208 52.7652 21.8797 57.0165 26.9733 58.8869C27.4253 59.0571 27.7904 59.21 27.7904 59.2442C27.7904 59.2781 27.5297 60.2474 27.1993 61.4037C26.869 62.543 26.5213 63.8013 26.417 64.1925L26.2257 64.8898L25.1306 64.4646C22.3837 63.3934 19.5328 61.778 16.9251 59.8562C15.4299 58.7509 12.3876 55.7241 11.1533 54.1256C7.62425 49.5514 5.31211 43.7868 4.89489 38.5492L4.79058 37.1889L10.4927 37.2909L10.6318 38.5322ZM55.6754 58.1388C56.8749 59.2781 57.8658 60.2644 57.8658 60.3325C57.8658 60.5875 54.5278 62.5772 52.4243 63.5634C49.8168 64.8048 47.3655 65.6038 44.3926 66.2331C42.289 66.6583 41.8371 66.6922 37.9605 66.7091C34.6051 66.7091 33.4578 66.6412 32.0845 66.4031C30.6761 66.131 30.3981 66.029 30.4676 65.8081C30.5196 65.6379 30.8849 64.3796 31.2672 62.9682C31.6671 61.5737 31.9976 60.4004 32.0148 60.3835C32.0496 60.3664 32.4147 60.4344 32.8319 60.5535C33.3187 60.6725 35.1267 60.7406 37.5257 60.7406C40.9159 60.7406 41.6633 60.6895 43.1409 60.3664C46.5137 59.6352 50.2513 58.1559 52.3897 56.7105C52.8765 56.3872 53.311 56.1151 53.3805 56.0982C53.4327 56.0812 54.4758 56.9996 55.6754 58.1388Z" fill="white"/>
<path fill-rule="evenodd" clip-rule="evenodd" d="M99.2237 14.6231C98.6328 15.7796 93.3477 25.9825 87.4891 37.3247C81.6131 48.6499 76.815 57.9687 76.815 58.0196C76.815 58.0706 79.0576 58.1217 81.8217 58.1217H86.8112L88.8104 53.9895L90.8269 49.8744L100.997 49.8232L111.184 49.7893L113.236 53.9555L115.305 58.1218H120.242C124.119 58.1218 125.162 58.0706 125.092 57.9006C125.057 57.7986 119.755 47.5616 113.34 35.165L101.692 12.6337L100.302 12.5316L99.2237 14.6231ZM104.7 35.7603C106.664 39.7734 108.281 43.1234 108.281 43.1915C108.281 43.2764 104.995 43.3274 100.962 43.3274C96.8594 43.3274 93.6782 43.2595 93.7128 43.1745C94.1824 41.9501 100.928 28.261 101.014 28.3462C101.084 28.3971 102.735 31.7301 104.7 35.7603Z" fill="white"/>
<path fill-rule="evenodd" clip-rule="evenodd" d="M204.748 13.4839C198.995 14.4021 194.683 16.4257 191.189 19.8437C188.39 22.5816 186.634 25.6252 185.625 29.5024C183.973 35.8963 184.93 43.0044 188.147 48.1738C190.944 52.6972 195.396 55.9281 200.993 57.5095C205.478 58.7849 211.077 58.972 215.892 58.0197C218.899 57.4245 223.245 55.6898 225.922 54.0064L226.843 53.4453L224.827 50.0442C223.732 48.1738 222.758 46.5752 222.689 46.5072C222.602 46.4222 222.116 46.6264 221.612 46.9493C218.307 49.0069 214.587 50.1973 210.676 50.4015C203.653 50.7925 198.038 48.3268 195.344 43.6675C193.5 40.4876 192.979 35.386 194.074 31.1688C194.213 30.6076 194.683 29.4514 195.1 28.6181C196.873 25.0982 200.212 22.7514 204.765 21.7821C206.834 21.3571 211.719 21.3571 213.806 21.7991C215.909 22.2412 219.038 23.2955 221.698 24.4349C222.951 24.979 224.01 25.4042 224.044 25.3702C224.08 25.3361 224.289 23.5337 224.514 21.3571L224.932 17.3949L224.55 17.0718C223.314 16.0854 219.021 14.504 215.63 13.8069C213.857 13.4328 212.988 13.3648 209.893 13.2967C207.321 13.2626 205.808 13.3138 204.748 13.4839Z" fill="white"/>
<path fill-rule="evenodd" clip-rule="evenodd" d="M132.446 58.1218H142.007V13.5689H132.446V58.1218Z" fill="white"/>
<path fill-rule="evenodd" clip-rule="evenodd" d="M154.176 58.1218H163.564V37.3757H175.211V30.4038H163.564V20.711H180.427V13.739H154.176V58.1218Z" fill="white"/>
<path fill-rule="evenodd" clip-rule="evenodd" d="M35.7352 21.7483C29.8765 22.4114 24.9566 26.6117 23.5311 32.1892C23.1313 33.7196 23.1313 36.5424 23.5137 38.09C25.3391 45.5552 33.2664 50.1805 41.0026 48.3099C49.8166 46.1673 54.2844 37.1207 50.4078 29.3155C48.339 25.1662 44.1317 22.3435 39.0904 21.7313C37.4909 21.5442 37.4562 21.5442 35.7352 21.7483ZM40.0466 25.8974C43.5582 26.7988 46.4614 29.5876 47.3481 32.9034C47.6784 34.1108 47.6784 36.3214 47.3655 37.4778C46.4788 40.7768 43.593 43.5655 40.1857 44.4328C38.8992 44.7559 36.1524 44.7559 34.8485 44.4328C31.4934 43.5826 28.6596 40.8787 27.7035 37.6478C27.2515 36.1174 27.4078 33.2436 28.0337 31.7641C29.2159 28.9412 31.8062 26.7307 34.918 25.9144C36.1872 25.5743 38.7601 25.5743 40.0466 25.8974Z" fill="white"/>
</svg>
